<?xml version="1.0" standalone="no"?><!-- Generator: Gravit.io --><svg xmlns="http://www.w3.org/2000/svg" xmlns:xlink="http://www.w3.org/1999/xlink" style="isolation:isolate" viewBox="0 0 24 24" width="24" height="24"><defs><clipPath id="_clipPath_1ibfHqKVMQXj602hOV8uYHxo3QIwQSka"><rect width="24" height="24"/></clipPath></defs><g clip-path="url(#_clipPath_1ibfHqKVMQXj602hOV8uYHxo3QIwQSka)"><rect width="24" height="24" style="fill:rgb(0,0,0)" fill-opacity="0"/><path d=" M 4 4 L 20 4 C 20.53 4 21.04 4.21 21.41 4.59 C 21.79 4.96 22 5.47 22 6 L 22 9 C 22 9.53 21.79 10.04 21.41 10.41 C 21.04 10.79 20.53 11 20 11 L 4 11 C 3.47 11 2.96 10.79 2.59 10.41 C 2.21 10.04 2 9.53 2 9 L 2 6 C 2 5.47 2.21 4.96 2.59 4.59 C 2.96 4.21 3.47 4 4 4 Z  M 4 6 L 20 6 L 20 9 L 4 9 L 4 6 Z " fill-rule="evenodd" fill="rgb(255,255,255)"/><path d=" M 4 13 L 20 13 C 20.53 13 21.04 13.21 21.41 13.59 C 21.79 13.96 22 14.47 22 15 L 22 18 C 22 18.53 21.79 19.04 21.41 19.41 C 21.04 19.79 20.53 20 20 20 L 4 20 C 3.47 20 2.96 19.79 2.59 19.41 C 2.21 19.04 2 18.53 2 18 L 2 15 C 2 14.47 2.21 13.96 2.59 13.59 C 2.96 13.21 3.47 13 4 13 Z  M 4 15 L 20 15 L 20 18 L 4 18 L 4 15 Z " fill-rule="evenodd" fill="rgb(255,255,255)"/><rect x="4" y="6" width="12" height="3" transform="matrix(1,0,0,1,0,0)" fill="rgb(255,255,255)" fill-opacity="0.66"/><rect x="4" y="15" width="6" height="3" transform="matrix(1,0,0,1,0,0)" fill="rgb(255,255,255)" fill-opacity="0.66"/></g></svg>