<?xml version="1.0" standalone="no"?><!-- Generator: Gravit.io --><svg xmlns="http://www.w3.org/2000/svg" xmlns:xlink="http://www.w3.org/1999/xlink" style="isolation:isolate" viewBox="0 0 24 24" width="24" height="24"><defs><clipPath id="_clipPath_gRnlDq0YukZCgVLk8USm4mAr9Yg4FEN7"><rect width="24" height="24"/></clipPath></defs><g clip-path="url(#_clipPath_gRnlDq0YukZCgVLk8USm4mAr9Yg4FEN7)"><rect width="24" height="24" style="fill:rgb(0,0,0)" fill-opacity="0"/><path d=" M 6.448 10.208 L 4.872 10.208 L 4.128 16.392 L 3.696 17.784 L 3.696 17.784 Q 3.552 18.248 3.256 18.504 L 3.256 18.504 L 3.256 18.504 Q 2.96 18.76 2.416 18.76 L 2.416 18.76 L 1.408 18.76 L 2.44 10.2 L 1.952 10.088 L 1.952 10.088 Q 1.744 10.04 1.604 9.916 L 1.604 9.916 L 1.604 9.916 Q 1.464 9.792 1.464 9.576 L 1.464 9.576 L 1.464 9.576 Q 1.464 9.52 1.472 9.488 L 1.472 9.488 L 1.6 8.512 L 2.648 8.512 L 2.704 8.04 L 2.704 8.04 Q 2.792 7.328 3.096 6.752 L 3.096 6.752 L 3.096 6.752 Q 3.4 6.176 3.872 5.768 L 3.872 5.768 L 3.872 5.768 Q 4.344 5.36 4.964 5.136 L 4.964 5.136 L 4.964 5.136 Q 5.584 4.912 6.304 4.912 L 6.304 4.912 L 6.304 4.912 Q 6.584 4.912 6.82 4.948 L 6.82 4.948 L 6.82 4.948 Q 7.056 4.984 7.296 5.064 L 7.296 5.064 L 7.072 6.312 L 7.072 6.312 Q 7.032 6.52 6.848 6.584 L 6.848 6.584 L 6.848 6.584 Q 6.664 6.648 6.48 6.648 L 6.48 6.648 L 6.48 6.648 Q 5.864 6.648 5.5 6.976 L 5.5 6.976 L 5.5 6.976 Q 5.136 7.304 5.04 8.12 L 5.04 8.12 L 4.992 8.512 L 6.672 8.512 L 6.448 10.208 L 6.448 10.208 Z  M 8.936 13.376 L 8.936 13.376 L 8.936 13.376 Q 8.936 13.904 8.972 14.492 L 8.972 14.492 L 8.972 14.492 Q 9.008 15.08 9.08 15.676 L 9.08 15.676 L 9.08 15.676 Q 9.152 16.272 9.268 16.844 L 9.268 16.844 L 9.268 16.844 Q 9.384 17.416 9.544 17.912 L 9.544 17.912 L 9.544 17.912 Q 9.576 18.008 9.596 18.092 L 9.596 18.092 L 9.596 18.092 Q 9.616 18.176 9.616 18.248 L 9.616 18.248 L 9.616 18.248 Q 9.616 18.464 9.496 18.596 L 9.496 18.596 L 9.496 18.596 Q 9.376 18.728 9.208 18.816 L 9.208 18.816 L 8.072 19.432 L 8.072 19.432 Q 7.752 18.76 7.524 18.02 L 7.524 18.02 L 7.524 18.02 Q 7.296 17.28 7.148 16.52 L 7.148 16.52 L 7.148 16.52 Q 7 15.76 6.928 15 L 6.928 15 L 6.928 15 Q 6.856 14.24 6.856 13.544 L 6.856 13.544 L 6.856 13.544 Q 6.856 12.296 7.02 11.116 L 7.02 11.116 L 7.02 11.116 Q 7.184 9.936 7.552 8.784 L 7.552 8.784 L 7.552 8.784 Q 7.92 7.632 8.508 6.484 L 8.508 6.484 L 8.508 6.484 Q 9.096 5.336 9.944 4.136 L 9.944 4.136 L 10.936 4.744 L 10.936 4.744 Q 11.048 4.824 11.132 4.924 L 11.132 4.924 L 11.132 4.924 Q 11.216 5.024 11.216 5.176 L 11.216 5.176 L 11.216 5.176 Q 11.216 5.272 11.168 5.384 L 11.168 5.384 L 11.168 5.384 Q 11.12 5.496 11.032 5.656 L 11.032 5.656 L 11.032 5.656 Q 10.576 6.488 10.188 7.384 L 10.188 7.384 L 10.188 7.384 Q 9.8 8.28 9.524 9.248 L 9.524 9.248 L 9.524 9.248 Q 9.248 10.216 9.092 11.248 L 9.092 11.248 L 9.092 11.248 Q 8.936 12.28 8.936 13.376 Z  M 10.256 16.792 L 13.496 12.296 L 11.632 8.496 L 13.904 8.496 L 13.904 8.496 Q 14.144 8.496 14.252 8.56 L 14.252 8.56 L 14.252 8.56 Q 14.36 8.624 14.432 8.784 L 14.432 8.784 L 15.352 10.92 L 15.352 10.92 Q 15.408 10.816 15.472 10.72 L 15.472 10.72 L 15.472 10.72 Q 15.536 10.624 15.6 10.52 L 15.6 10.52 L 16.688 8.832 L 16.688 8.832 Q 16.896 8.496 17.216 8.496 L 17.216 8.496 L 19.472 8.496 L 16.592 12.288 L 18.656 16.792 L 16.384 16.792 L 16.384 16.792 Q 16.144 16.792 16.004 16.664 L 16.004 16.664 L 16.004 16.664 Q 15.864 16.536 15.792 16.36 L 15.792 16.36 L 14.76 13.824 L 14.76 13.824 Q 14.72 13.912 14.672 13.992 L 14.672 13.992 L 14.672 13.992 Q 14.624 14.072 14.576 14.136 L 14.576 14.136 L 13.104 16.36 L 13.104 16.36 Q 12.992 16.528 12.836 16.66 L 12.836 16.66 L 12.836 16.66 Q 12.68 16.792 12.448 16.792 L 12.448 16.792 L 10.256 16.792 L 10.256 16.792 Z  M 21.352 10.192 L 21.352 10.192 L 21.352 10.192 Q 21.352 9.664 21.316 9.076 L 21.316 9.076 L 21.316 9.076 Q 21.28 8.488 21.208 7.892 L 21.208 7.892 L 21.208 7.892 Q 21.136 7.296 21.02 6.724 L 21.02 6.724 L 21.02 6.724 Q 20.904 6.152 20.744 5.656 L 20.744 5.656 L 20.744 5.656 Q 20.712 5.56 20.692 5.476 L 20.692 5.476 L 20.692 5.476 Q 20.672 5.392 20.672 5.32 L 20.672 5.32 L 20.672 5.32 Q 20.672 5.104 20.792 4.972 L 20.792 4.972 L 20.792 4.972 Q 20.912 4.84 21.08 4.752 L 21.08 4.752 L 22.216 4.136 L 22.216 4.136 Q 22.536 4.808 22.764 5.548 L 22.764 5.548 L 22.764 5.548 Q 22.992 6.288 23.14 7.052 L 23.14 7.052 L 23.14 7.052 Q 23.288 7.816 23.36 8.572 L 23.36 8.572 L 23.36 8.572 Q 23.432 9.328 23.432 10.024 L 23.432 10.024 L 23.432 10.024 Q 23.432 11.272 23.268 12.452 L 23.268 12.452 L 23.268 12.452 Q 23.104 13.632 22.736 14.784 L 22.736 14.784 L 22.736 14.784 Q 22.368 15.936 21.78 17.084 L 21.78 17.084 L 21.78 17.084 Q 21.192 18.232 20.344 19.432 L 20.344 19.432 L 19.352 18.824 L 19.352 18.824 Q 19.24 18.744 19.156 18.644 L 19.156 18.644 L 19.156 18.644 Q 19.072 18.544 19.072 18.392 L 19.072 18.392 L 19.072 18.392 Q 19.072 18.296 19.12 18.184 L 19.12 18.184 L 19.12 18.184 Q 19.168 18.072 19.256 17.912 L 19.256 17.912 L 19.256 17.912 Q 19.712 17.088 20.1 16.188 L 20.1 16.188 L 20.1 16.188 Q 20.488 15.288 20.764 14.324 L 20.764 14.324 L 20.764 14.324 Q 21.04 13.36 21.196 12.324 L 21.196 12.324 L 21.196 12.324 Q 21.352 11.288 21.352 10.192 Z " fill-rule="evenodd" fill="rgb(255,255,255)"/></g></svg>