<?xml version="1.0" standalone="no"?><!-- Generator: Gravit.io --><svg xmlns="http://www.w3.org/2000/svg" xmlns:xlink="http://www.w3.org/1999/xlink" style="isolation:isolate" viewBox="0 0 24 24" width="24" height="24"><defs><clipPath id="_clipPath_SbP7T9Fw09lxcwOEkkAazpsHFwb32EYo"><rect width="24" height="24"/></clipPath></defs><g clip-path="url(#_clipPath_SbP7T9Fw09lxcwOEkkAazpsHFwb32EYo)"><circle vector-effect="non-scaling-stroke" cx="12" cy="12" r="2" fill="rgb(255,255,255)"/><circle vector-effect="non-scaling-stroke" cx="17" cy="12" r="1.5" fill="rgb(255,255,255)"/><circle vector-effect="non-scaling-stroke" cx="21" cy="12" r="1" fill="rgb(255,255,255)"/><circle vector-effect="non-scaling-stroke" cx="3" cy="12" r="1" fill="rgb(255,255,255)"/><path d=" M 12 20 C 12.552 20 13 20.448 13 21 C 13 21.552 12.552 22 12 22 C 11.448 22 11 21.552 11 21 C 11 20.448 11.448 20 12 20 Z " fill="rgb(255,255,255)"/><path d=" M 12 2 C 12.552 2 13 2.448 13 3 C 13 3.552 12.552 4 12 4 C 11.448 4 11 3.552 11 3 C 11 2.448 11.448 2 12 2 Z " fill="rgb(255,255,255)"/><path d=" M 17.657 17.657 C 18.047 17.267 18.681 17.267 19.071 17.657 C 19.461 18.047 19.461 18.681 19.071 19.071 C 18.681 19.461 18.047 19.461 17.657 19.071 C 17.267 18.681 17.267 18.047 17.657 17.657 Z " fill="rgb(255,255,255)"/><path d=" M 4.929 4.929 C 5.319 4.539 5.953 4.539 6.343 4.929 C 6.733 5.319 6.733 5.953 6.343 6.343 C 5.953 6.733 5.319 6.733 4.929 6.343 C 4.539 5.953 4.539 5.319 4.929 4.929 Z " fill="rgb(255,255,255)"/><path d=" M 6.343 17.657 C 6.733 18.047 6.733 18.681 6.343 19.071 C 5.953 19.461 5.319 19.461 4.929 19.071 C 4.539 18.681 4.539 18.047 4.929 17.657 C 5.319 17.267 5.953 17.267 6.343 17.657 Z " fill="rgb(255,255,255)"/><path d=" M 19.071 4.929 C 19.461 5.319 19.461 5.953 19.071 6.343 C 18.681 6.733 18.047 6.733 17.657 6.343 C 17.267 5.953 17.267 5.319 17.657 4.929 C 18.047 4.539 18.681 4.539 19.071 4.929 Z " fill="rgb(255,255,255)"/><path d=" M 19.391 15.061 C 19.602 14.552 20.188 14.309 20.698 14.52 C 21.208 14.731 21.45 15.317 21.239 15.827 C 21.028 16.337 20.442 16.579 19.932 16.368 C 19.422 16.157 19.18 15.571 19.391 15.061 Z " fill="rgb(255,255,255)"/><path d=" M 2.761 8.173 C 2.972 7.663 3.558 7.421 4.068 7.632 C 4.578 7.843 4.82 8.429 4.609 8.939 C 4.398 9.448 3.812 9.691 3.302 9.48 C 2.792 9.269 2.55 8.683 2.761 8.173 Z " fill="rgb(255,255,255)"/><path d=" M 8.939 19.391 C 9.448 19.602 9.691 20.188 9.48 20.698 C 9.269 21.208 8.683 21.45 8.173 21.239 C 7.663 21.028 7.421 20.442 7.632 19.932 C 7.843 19.422 8.429 19.18 8.939 19.391 Z " fill="rgb(255,255,255)"/><path d=" M 15.827 2.761 C 16.337 2.972 16.579 3.558 16.368 4.068 C 16.157 4.578 15.571 4.82 15.061 4.609 C 14.552 4.398 14.309 3.812 14.52 3.302 C 14.731 2.792 15.317 2.55 15.827 2.761 Z " fill="rgb(255,255,255)"/><path d=" M 15.061 19.391 C 15.571 19.18 16.157 19.422 16.368 19.932 C 16.579 20.442 16.337 21.028 15.827 21.239 C 15.317 21.45 14.731 21.208 14.52 20.698 C 14.309 20.188 14.552 19.602 15.061 19.391 Z " fill="rgb(255,255,255)"/><path d=" M 8.173 2.761 C 8.683 2.55 9.269 2.792 9.48 3.302 C 9.691 3.812 9.448 4.398 8.939 4.609 C 8.429 4.82 7.843 4.578 7.632 4.068 C 7.421 3.558 7.663 2.972 8.173 2.761 Z " fill="rgb(255,255,255)"/><path d=" M 4.609 15.061 C 4.82 15.571 4.578 16.157 4.068 16.368 C 3.558 16.579 2.972 16.337 2.761 15.827 C 2.55 15.317 2.792 14.731 3.302 14.52 C 3.812 14.309 4.398 14.552 4.609 15.061 Z " fill="rgb(255,255,255)"/><path d=" M 21.239 8.173 C 21.45 8.683 21.208 9.269 20.698 9.48 C 20.188 9.691 19.602 9.448 19.391 8.939 C 19.18 8.429 19.422 7.843 19.932 7.632 C 20.442 7.421 21.028 7.663 21.239 8.173 Z " fill="rgb(255,255,255)"/><circle vector-effect="non-scaling-stroke" cx="7" cy="12" r="1.5" fill="rgb(255,255,255)"/><circle vector-effect="non-scaling-stroke" cx="8.5" cy="8.5" r="1.5" fill="rgb(255,255,255)"/><circle vector-effect="non-scaling-stroke" cx="15.5" cy="8.5" r="1.5" fill="rgb(255,255,255)"/><circle vector-effect="non-scaling-stroke" cx="8.5" cy="15.5" r="1.5" fill="rgb(255,255,255)"/><circle vector-effect="non-scaling-stroke" cx="15.5" cy="15.5" r="1.5" fill="rgb(255,255,255)"/><path d=" M 12 15.5 C 12.828 15.5 13.5 16.172 13.5 17 C 13.5 17.828 12.828 18.5 12 18.5 C 11.172 18.5 10.5 17.828 10.5 17 C 10.5 16.172 11.172 15.5 12 15.5 Z " fill="rgb(255,255,255)"/><path d=" M 12 5.5 C 12.828 5.5 13.5 6.172 13.5 7 C 13.5 7.828 12.828 8.5 12 8.5 C 11.172 8.5 10.5 7.828 10.5 7 C 10.5 6.172 11.172 5.5 12 5.5 Z " fill="rgb(255,255,255)"/></g></svg>