<?xml version="1.0" standalone="no"?><!-- Generator: Gravit.io --><svg xmlns="http://www.w3.org/2000/svg" xmlns:xlink="http://www.w3.org/1999/xlink" style="isolation:isolate" viewBox="0 0 24 24" width="24" height="24"><defs><clipPath id="_clipPath_m6FYrU9xytfFec28fOH1jtzjAtpL0y8U"><rect width="24" height="24"/></clipPath></defs><g clip-path="url(#_clipPath_m6FYrU9xytfFec28fOH1jtzjAtpL0y8U)"><rect width="24" height="24" style="fill:rgb(0,0,0)" fill-opacity="0"/><path d=" M 6.04 6.776 L 4.464 6.776 L 3.72 12.96 L 3.288 14.352 L 3.288 14.352 Q 3.144 14.816 2.848 15.072 L 2.848 15.072 L 2.848 15.072 Q 2.552 15.328 2.008 15.328 L 2.008 15.328 L 1 15.328 L 2.032 6.768 L 1.544 6.656 L 1.544 6.656 Q 1.336 6.608 1.196 6.484 L 1.196 6.484 L 1.196 6.484 Q 1.056 6.36 1.056 6.144 L 1.056 6.144 L 1.056 6.144 Q 1.056 6.088 1.064 6.056 L 1.064 6.056 L 1.192 5.08 L 2.24 5.08 L 2.296 4.608 L 2.296 4.608 Q 2.384 3.896 2.688 3.32 L 2.688 3.32 L 2.688 3.32 Q 2.992 2.744 3.464 2.336 L 3.464 2.336 L 3.464 2.336 Q 3.936 1.928 4.556 1.704 L 4.556 1.704 L 4.556 1.704 Q 5.176 1.48 5.896 1.48 L 5.896 1.48 L 5.896 1.48 Q 6.176 1.48 6.412 1.516 L 6.412 1.516 L 6.412 1.516 Q 6.648 1.552 6.888 1.632 L 6.888 1.632 L 6.664 2.88 L 6.664 2.88 Q 6.624 3.088 6.44 3.152 L 6.44 3.152 L 6.44 3.152 Q 6.256 3.216 6.072 3.216 L 6.072 3.216 L 6.072 3.216 Q 5.456 3.216 5.092 3.544 L 5.092 3.544 L 5.092 3.544 Q 4.728 3.872 4.632 4.688 L 4.632 4.688 L 4.584 5.08 L 6.264 5.08 L 6.04 6.776 Z  M 8.528 9.944 L 8.528 9.944 L 8.528 9.944 Q 8.528 10.472 8.564 11.06 L 8.564 11.06 L 8.564 11.06 Q 8.6 11.648 8.672 12.244 L 8.672 12.244 L 8.672 12.244 Q 8.744 12.84 8.86 13.412 L 8.86 13.412 L 8.86 13.412 Q 8.976 13.984 9.136 14.48 L 9.136 14.48 L 9.136 14.48 Q 9.168 14.576 9.188 14.66 L 9.188 14.66 L 9.188 14.66 Q 9.208 14.744 9.208 14.816 L 9.208 14.816 L 9.208 14.816 Q 9.208 15.032 9.088 15.164 L 9.088 15.164 L 9.088 15.164 Q 8.968 15.296 8.8 15.384 L 8.8 15.384 L 7.664 16 L 7.664 16 Q 7.344 15.328 7.116 14.588 L 7.116 14.588 L 7.116 14.588 Q 6.888 13.848 6.74 13.088 L 6.74 13.088 L 6.74 13.088 Q 6.592 12.328 6.52 11.568 L 6.52 11.568 L 6.52 11.568 Q 6.448 10.808 6.448 10.112 L 6.448 10.112 L 6.448 10.112 Q 6.448 8.864 6.612 7.684 L 6.612 7.684 L 6.612 7.684 Q 6.776 6.504 7.144 5.352 L 7.144 5.352 L 7.144 5.352 Q 7.512 4.2 8.1 3.052 L 8.1 3.052 L 8.1 3.052 Q 8.688 1.904 9.536 0.704 L 9.536 0.704 L 10.528 1.312 L 10.528 1.312 Q 10.64 1.392 10.724 1.492 L 10.724 1.492 L 10.724 1.492 Q 10.808 1.592 10.808 1.744 L 10.808 1.744 L 10.808 1.744 Q 10.808 1.84 10.76 1.952 L 10.76 1.952 L 10.76 1.952 Q 10.712 2.064 10.624 2.224 L 10.624 2.224 L 10.624 2.224 Q 10.168 3.056 9.78 3.952 L 9.78 3.952 L 9.78 3.952 Q 9.392 4.848 9.116 5.816 L 9.116 5.816 L 9.116 5.816 Q 8.84 6.784 8.684 7.816 L 8.684 7.816 L 8.684 7.816 Q 8.528 8.848 8.528 9.944 Z  M 9.848 13.36 L 13.088 8.864 L 11.224 5.064 L 13.496 5.064 L 13.496 5.064 Q 13.736 5.064 13.844 5.128 L 13.844 5.128 L 13.844 5.128 Q 13.952 5.192 14.024 5.352 L 14.024 5.352 L 14.944 7.488 L 14.944 7.488 Q 15 7.384 15.064 7.288 L 15.064 7.288 L 15.064 7.288 Q 15.128 7.192 15.192 7.088 L 15.192 7.088 L 16.28 5.4 L 16.28 5.4 Q 16.488 5.064 16.808 5.064 L 16.808 5.064 L 19.064 5.064 L 16.184 8.856 L 18.248 13.36 L 15.976 13.36 L 15.976 13.36 Q 15.736 13.36 15.596 13.232 L 15.596 13.232 L 15.596 13.232 Q 15.456 13.104 15.384 12.928 L 15.384 12.928 L 14.352 10.392 L 14.352 10.392 Q 14.312 10.48 14.264 10.56 L 14.264 10.56 L 14.264 10.56 Q 14.216 10.64 14.168 10.704 L 14.168 10.704 L 12.696 12.928 L 12.696 12.928 Q 12.584 13.096 12.428 13.228 L 12.428 13.228 L 12.428 13.228 Q 12.272 13.36 12.04 13.36 L 12.04 13.36 L 9.848 13.36 Z  M 20.944 6.76 L 20.944 6.76 L 20.944 6.76 Q 20.944 6.232 20.908 5.644 L 20.908 5.644 L 20.908 5.644 Q 20.872 5.056 20.8 4.46 L 20.8 4.46 L 20.8 4.46 Q 20.728 3.864 20.612 3.292 L 20.612 3.292 L 20.612 3.292 Q 20.496 2.72 20.336 2.224 L 20.336 2.224 L 20.336 2.224 Q 20.304 2.128 20.284 2.044 L 20.284 2.044 L 20.284 2.044 Q 20.264 1.96 20.264 1.888 L 20.264 1.888 L 20.264 1.888 Q 20.264 1.672 20.384 1.54 L 20.384 1.54 L 20.384 1.54 Q 20.504 1.408 20.672 1.32 L 20.672 1.32 L 21.808 0.704 L 21.808 0.704 Q 22.128 1.376 22.356 2.116 L 22.356 2.116 L 22.356 2.116 Q 22.584 2.856 22.732 3.62 L 22.732 3.62 L 22.732 3.62 Q 22.88 4.384 22.952 5.14 L 22.952 5.14 L 22.952 5.14 Q 23.024 5.896 23.024 6.592 L 23.024 6.592 L 23.024 6.592 Q 23.024 7.84 22.86 9.02 L 22.86 9.02 L 22.86 9.02 Q 22.696 10.2 22.328 11.352 L 22.328 11.352 L 22.328 11.352 Q 21.96 12.504 21.372 13.652 L 21.372 13.652 L 21.372 13.652 Q 20.784 14.8 19.936 16 L 19.936 16 L 18.944 15.392 L 18.944 15.392 Q 18.832 15.312 18.748 15.212 L 18.748 15.212 L 18.748 15.212 Q 18.664 15.112 18.664 14.96 L 18.664 14.96 L 18.664 14.96 Q 18.664 14.864 18.712 14.752 L 18.712 14.752 L 18.712 14.752 Q 18.76 14.64 18.848 14.48 L 18.848 14.48 L 18.848 14.48 Q 19.304 13.656 19.692 12.756 L 19.692 12.756 L 19.692 12.756 Q 20.08 11.856 20.356 10.892 L 20.356 10.892 L 20.356 10.892 Q 20.632 9.928 20.788 8.892 L 20.788 8.892 L 20.788 8.892 Q 20.944 7.856 20.944 6.76 Z " fill-rule="evenodd" fill="rgb(255,255,255)"/><circle vector-effect="non-scaling-stroke" cx="4.008" cy="20" r="2" fill="none" stroke-width="2" stroke="rgb(255,255,255)" stroke-linejoin="miter" stroke-linecap="square" stroke-miterlimit="3"/><circle vector-effect="non-scaling-stroke" cx="19" cy="20" r="2" fill="none" stroke-width="2" stroke="rgb(255,255,255)" stroke-linejoin="miter" stroke-linecap="square" stroke-miterlimit="3"/><line x1="6.412" y1="20" x2="17" y2="20" vector-effect="non-scaling-stroke" stroke-width="2" stroke="rgb(255,255,255)" stroke-linejoin="miter" stroke-linecap="square" stroke-miterlimit="3"/></g></svg>