<?xml version="1.0" standalone="no"?><!-- Generator: Gravit.io --><svg xmlns="http://www.w3.org/2000/svg" xmlns:xlink="http://www.w3.org/1999/xlink" style="isolation:isolate" viewBox="0 0 24 24" width="24" height="24"><g id="channels"><rect x="0" y="0" width="24" height="24" transform="matrix(1,0,0,1,0,0)" fill="none"/><path d=" M 18 19 C 18 18.73 18.11 18.48 18.29 18.29 C 18.48 18.11 18.73 18 19 18 C 19.27 18 19.52 18.11 19.71 18.29 C 19.89 18.48 20 18.73 20 19 C 20 19.27 19.89 19.52 19.71 19.71 C 19.52 19.89 19.27 20 19 20 C 18.73 20 18.48 19.89 18.29 19.71 C 18.11 19.52 18 19.27 18 19 Z  M 6.828 13 L 10 13 L 10 17 C 10 18.656 11.344 20 13 20 L 16.172 20 C 16.321 20.418 16.562 20.802 16.88 21.12 C 17.44 21.68 18.2 22 19 22 C 19.8 22 20.56 21.68 21.12 21.12 C 21.68 20.56 22 19.8 22 19 C 22 18.2 21.68 17.44 21.12 16.88 C 20.56 16.32 19.8 16 19 16 C 18.2 16 17.44 16.32 16.88 16.88 C 16.562 17.198 16.321 17.582 16.172 18 L 13 18 C 12.448 18 12 17.552 12 17 L 12 13 L 16.172 13 C 16.321 13.418 16.562 13.802 16.88 14.12 C 17.44 14.68 18.2 15 19 15 C 19.8 15 20.56 14.68 21.12 14.12 C 21.68 13.56 22 12.8 22 12 C 22 11.2 21.68 10.44 21.12 9.88 C 20.56 9.32 19.8 9 19 9 C 18.2 9 17.44 9.32 16.88 9.88 C 16.562 10.198 16.321 10.582 16.172 11 L 12 11 L 12 7 C 12 6.448 12.448 6 13 6 L 16.172 6 C 16.321 6.418 16.562 6.802 16.88 7.12 C 17.44 7.68 18.2 8 19 8 C 19.8 8 20.56 7.68 21.12 7.12 C 21.68 6.56 22 5.8 22 5 C 22 4.2 21.68 3.44 21.12 2.88 C 20.56 2.32 19.8 2 19 2 C 18.2 2 17.44 2.32 16.88 2.88 C 16.562 3.198 16.321 3.582 16.172 4 L 13 4 C 11.344 4 10 5.344 10 7 L 10 11 L 6.828 11 C 6.679 10.582 6.438 10.198 6.12 9.88 C 5.56 9.32 4.8 9 4 9 C 3.2 9 2.44 9.32 1.88 9.88 C 1.32 10.44 1 11.2 1 12 C 1 12.8 1.32 13.56 1.88 14.12 C 2.44 14.68 3.2 15 4 15 C 4.8 15 5.56 14.68 6.12 14.12 C 6.438 13.802 6.679 13.418 6.828 13 Z  M 18 5 C 18 5.27 18.11 5.52 18.29 5.71 C 18.48 5.89 18.73 6 19 6 C 19.27 6 19.52 5.89 19.71 5.71 C 19.89 5.52 20 5.27 20 5 C 20 4.73 19.89 4.48 19.71 4.29 C 19.52 4.11 19.27 4 19 4 C 18.73 4 18.48 4.11 18.29 4.29 C 18.11 4.48 18 4.73 18 5 Z  M 3 12 C 3 11.73 3.11 11.48 3.29 11.29 C 3.48 11.11 3.73 11 4 11 C 4.27 11 4.52 11.11 4.71 11.29 C 4.89 11.48 5 11.73 5 12 C 5 12.27 4.89 12.52 4.71 12.71 C 4.52 12.89 4.27 13 4 13 C 3.73 13 3.48 12.89 3.29 12.71 C 3.11 12.52 3 12.27 3 12 Z  M 16.172 11 M 18 12 C 18 11.73 18.11 11.48 18.29 11.29 C 18.48 11.11 18.73 11 19 11 C 19.27 11 19.52 11.11 19.71 11.29 C 19.89 11.48 20 11.73 20 12 C 20 12.27 19.89 12.52 19.71 12.71 C 19.52 12.89 19.27 13 19 13 C 18.73 13 18.48 12.89 18.29 12.71 C 18.11 12.52 18 12.27 18 12 Z " fill-rule="evenodd" fill="rgb(255,255,255)"/></g></svg>