<?xml version="1.0" standalone="no"?><!-- Generator: Gravit.io --><svg xmlns="http://www.w3.org/2000/svg" xmlns:xlink="http://www.w3.org/1999/xlink" style="isolation:isolate" viewBox="0 0 24 24" width="24" height="24"><defs><clipPath id="_clipPath_IAN2H1zD2Bly3o5ST5LeoercyTI7K7ci"><rect width="24" height="24"/></clipPath></defs><g clip-path="url(#_clipPath_IAN2H1zD2Bly3o5ST5LeoercyTI7K7ci)"><rect width="24" height="24" style="fill:rgb(0,0,0)" fill-opacity="0"/><path d=" M 8.499 17.762 C 9.113 17.917 9.759 18 10.425 18 L 11 18 L 13.575 18 C 17.673 18 21 14.863 21 11 L 21 11 C 21 7.137 17.673 4 13.575 4 L 10.425 4 C 6.327 4 3 7.137 3 11 L 3 11 L 3 11 C 3 11.968 3.209 12.891 3.587 13.73 Q 4.206 17.706 3 20 Q 5.013 17.776 8.499 17.762 Z " fill-rule="evenodd" fill="none" vector-effect="non-scaling-stroke" stroke-width="2" stroke="rgb(255,255,255)" stroke-linejoin="round" stroke-linecap="round" stroke-miterlimit="3"/><circle vector-effect="non-scaling-stroke" cx="12" cy="11" r="1" fill="rgb(255,255,255)"/><circle vector-effect="non-scaling-stroke" cx="15" cy="11" r="1" fill="rgb(255,255,255)"/><circle vector-effect="non-scaling-stroke" cx="9" cy="11" r="1" fill="rgb(255,255,255)"/></g></svg>