<?xml version="1.0" standalone="no"?><!-- Generator: Gravit.io --><svg xmlns="http://www.w3.org/2000/svg" xmlns:xlink="http://www.w3.org/1999/xlink" style="isolation:isolate" viewBox="0 72 24 24" width="24" height="24"><g id="composing"><rect x="0" y="72" width="24" height="24" transform="matrix(1,0,0,1,0,0)" fill="none"/><path d=" M 5.76 84 L 3.549 85.106 C 2.562 85.599 2.562 86.401 3.549 86.894 L 11.106 90.673 C 11.599 90.92 12.401 90.92 12.894 90.673 L 20.451 86.894 C 21.438 86.401 21.438 85.599 20.451 85.106 L 18.24 84 L 20.451 82.894 C 21.438 82.401 21.438 81.6 20.45 81.107 L 18.07 79.92 L 12.894 77.328 C 12.401 77.081 11.599 77.08 11.106 77.327 L 3.549 81.106 C 2.562 81.599 2.562 82.401 3.549 82.894 L 5.76 84 Z  M 8 85.12 L 6.24 86 L 12 88.88 L 17.76 86 L 16 85.12 L 12.894 86.673 C 12.401 86.92 11.599 86.92 11.106 86.673 L 8 85.12 Z  M 12 84.88 L 6.24 82 L 12 79.12 L 17.18 81.71 L 17.76 82 L 12 84.88 Z " fill-rule="evenodd" fill="rgb(255,255,255)"/></g></svg>