<?xml version="1.0" standalone="no"?><!-- Generator: Gravit.io --><svg xmlns="http://www.w3.org/2000/svg" xmlns:xlink="http://www.w3.org/1999/xlink" style="isolation:isolate" viewBox="0 0 24 24" width="24" height="24"><defs><clipPath id="_clipPath_Q1qtK4XuLtQRQdU4VS6PTcJptPtpkPRP"><rect width="24" height="24"/></clipPath></defs><g clip-path="url(#_clipPath_Q1qtK4XuLtQRQdU4VS6PTcJptPtpkPRP)"><rect width="24" height="24" style="fill:rgb(0,0,0)" fill-opacity="0"/><g><path d=" M 19.409 12.669 L 22.11 11.32 C 22.62 11.11 22.95 10.63 22.97 10.09 C 22.95 9.54 22.62 9.06 22.11 8.85 L 13.08 4.34 L 13.08 4.34 C 13.07 4.33 13.06 4.33 13.05 4.32 C 12.72 4.17 12.36 4.09 12 4.1 C 11.64 4.09 11.28 4.17 10.95 4.32 C 10.94 4.33 10.93 4.33 10.92 4.34 L 1.89 8.85 C 1.38 9.06 1.05 9.54 1.03 10.09 C 1.05 10.63 1.38 11.11 1.89 11.32 L 4.591 12.669 L 1.89 14.02 C 1.38 14.23 1.05 14.71 1.03 15.26 C 1.05 15.8 1.38 16.28 1.89 16.49 L 10.92 21 C 10.93 21.01 10.94 21.01 10.95 21.02 C 11.28 21.17 11.64 21.25 12 21.24 C 12.36 21.25 12.72 21.17 13.05 21.02 C 13.06 21.01 13.07 21.01 13.08 21 L 22.11 16.49 C 22.62 16.28 22.95 15.8 22.97 15.26 C 22.95 14.71 22.62 14.23 22.11 14.02 L 19.409 12.669 Z  M 17.167 13.789 L 13.08 15.83 C 13.07 15.84 13.06 15.84 13.05 15.85 C 12.72 16 12.36 16.08 12 16.07 C 11.64 16.08 11.28 16 10.95 15.85 C 10.94 15.84 10.93 15.84 10.92 15.83 L 6.833 13.789 L 3.89 15.26 L 11.8 19.21 C 11.86 19.24 11.93 19.25 12 19.24 C 12.07 19.25 12.14 19.24 12.2 19.21 L 20.11 15.26 L 20.11 15.26 L 17.167 13.789 Z  M 17.178 11.554 L 20.11 10.09 L 20.11 10.09 L 12.2 6.13 C 12.14 6.11 12.07 6.09 12 6.1 C 11.93 6.09 11.86 6.11 11.8 6.13 L 3.89 10.09 L 6.822 11.554 L 11.8 14 C 11.86 14.03 11.93 14.04 12 14.03 C 12.07 14.04 12.14 14.03 12.2 14 L 17.178 11.554 Z " fill-rule="evenodd" fill="rgb(255,255,255)"/></g></g></svg>