<?xml version="1.0" standalone="no"?><!-- Generator: Gravit.io --><svg xmlns="http://www.w3.org/2000/svg" xmlns:xlink="http://www.w3.org/1999/xlink" style="isolation:isolate" viewBox="48 0 24 24" width="24" height="24"><g id="convert"><rect x="48" y="0" width="24" height="24" transform="matrix(1,0,0,1,0,0)" fill="none"/><path d=" M 54.368 18.311 L 52.57 12.918 L 49.845 11.141 C 48.921 10.538 48.921 9.558 49.845 8.955 L 52.57 7.178 L 54.368 1.785 C 54.717 0.738 55.283 0.738 55.632 1.785 L 57.43 7.178 L 60.155 8.955 C 61.079 9.558 61.079 10.538 60.155 11.141 L 57.43 12.918 L 55.632 18.311 C 55.283 19.358 54.717 19.358 54.368 18.311 Z  M 55 13.888 L 54.25 11.628 L 51.83 10.048 L 54.25 8.468 L 55 6.208 L 55.75 8.468 L 58.17 10.048 L 55.75 11.628 L 55 13.888 Z " fill-rule="evenodd" fill="rgb(255,255,255)"/><path d=" M 62 22.048 L 60.939 20.109 L 59 19.048 L 60.939 17.987 L 62 16.048 L 63.061 17.987 L 65 19.048 L 63.061 20.109 L 62 22.048 Z  M 61.519 23.251 L 60.2 20.848 L 57.797 19.529 C 57.313 19.264 57.313 18.832 57.797 18.567 L 60.2 17.248 L 61.519 14.845 C 61.784 14.361 62.216 14.361 62.481 14.845 L 63.8 17.248 L 66.203 18.567 C 66.687 18.832 66.687 19.264 66.203 19.529 L 63.8 20.848 L 62.481 23.251 C 62.216 23.735 61.784 23.735 61.519 23.251 Z " fill-rule="evenodd" fill="rgb(255,255,255)"/><path d=" M 67 15.048 L 65.939 13.109 L 64 12.048 L 65.939 10.987 L 67 9.048 L 68.061 10.987 L 70 12.048 L 68.061 13.109 L 67 15.048 Z  M 66.519 16.251 L 65.2 13.848 L 62.797 12.529 C 62.313 12.264 62.313 11.832 62.797 11.567 L 65.2 10.248 L 66.519 7.845 C 66.784 7.361 67.216 7.361 67.481 7.845 L 68.8 10.248 L 71.203 11.567 C 71.687 11.832 71.687 12.264 71.203 12.529 L 68.8 13.848 L 67.481 16.251 C 67.216 16.735 66.784 16.735 66.519 16.251 Z " fill-rule="evenodd" fill="rgb(255,255,255)"/></g></svg>