<?xml version="1.0" standalone="no"?><!-- Generator: Gravit.io --><svg xmlns="http://www.w3.org/2000/svg" xmlns:xlink="http://www.w3.org/1999/xlink" style="isolation:isolate" viewBox="0 0 24 24" width="24" height="24"><defs><clipPath id="_clipPath_ZyM0qXZsyh4iuRCSe0kpEFRg7vnmmCEs"><rect width="24" height="24"/></clipPath></defs><g clip-path="url(#_clipPath_ZyM0qXZsyh4iuRCSe0kpEFRg7vnmmCEs)"><path d=" M 9.01 2 L 19.99 2 C 20.52 2 21.04 2.21 21.41 2.59 C 21.79 2.96 22 3.48 22 4.01 L 22 14.99 C 22 15.52 21.79 16.04 21.41 16.41 C 21.04 16.79 20.52 17 19.99 17 L 9.01 17 C 8.48 17 7.96 16.79 7.59 16.41 C 7.21 16.04 7 15.52 7 14.99 L 7 4.01 C 7 3.48 7.21 2.96 7.59 2.59 C 7.96 2.21 8.48 2 9.01 2 Z  M 9 4 L 20 4 L 20 15 L 9 15 L 9 4 Z " fill-rule="evenodd" fill="rgb(255,255,255)"/><path d=" M 9 8.071 C 8.673 8.024 8.339 8 8 8 C 4.137 8 1 11.137 1 15 C 1 18.863 4.137 22 8 22 C 11.863 22 15 18.863 15 15 L 9 15 L 9 8.071 Z " fill="rgb(255,255,255)" fill-opacity="0.65"/><path d=" M 9 15 L 15 15 C 15 18.863 11.863 22 8 22 C 4.137 22 1 18.863 1 15 C 1 11.137 4.137 8 8 8 C 8.339 8 8.673 8.024 9 8.071 L 9 15 Z  M 7 10.1 L 7 15 C 7 16.104 7.896 17 9 17 L 12.58 17 C 11.79 18.82 9.98 20 8 20 C 6.67 20 5.4 19.47 4.46 18.54 C 3.53 17.6 3 16.33 3 15 C 3 13.85 3.4 12.73 4.13 11.84 C 4.86 10.95 5.87 10.33 7 10.1 Z " fill-rule="evenodd" fill="rgb(255,255,255)"/></g></svg>