<?xml version="1.0" standalone="no"?><!-- Generator: Gravit.io --><svg xmlns="http://www.w3.org/2000/svg" xmlns:xlink="http://www.w3.org/1999/xlink" style="isolation:isolate" viewBox="0 0 24 24" width="24" height="24"><defs><clipPath id="_clipPath_ea84fuKw1PhtT5jdfnyJJOjynCg7yBbK"><rect width="24" height="24"/></clipPath></defs><g clip-path="url(#_clipPath_ea84fuKw1PhtT5jdfnyJJOjynCg7yBbK)"><rect x="0" y="0" width="24" height="24" transform="matrix(1,0,0,1,0,0)" fill="none"/><path d=" M 10.01 3 L 19.99 3 C 20.52 3 21.04 3.21 21.41 3.59 C 21.79 3.96 22 4.48 22 5.01 L 22 13.99 C 22 14.52 21.79 15.04 21.41 15.41 C 21.04 15.79 20.52 16 19.99 16 L 10.01 16 C 9.48 16 8.96 15.79 8.59 15.41 C 8.21 15.04 8 14.52 8 13.99 L 8 5.01 C 8 4.48 8.21 3.96 8.59 3.59 C 8.96 3.21 9.48 3 10.01 3 Z  M 10 5 L 20 5 L 20 14 L 10 14 L 10 5 Z " fill-rule="evenodd" fill="rgb(255,255,255)"/><path d=" M 10 7.071 C 9.673 7.024 9.339 7 9 7 C 5.137 7 2 10.137 2 14 C 2 17.863 5.137 21 9 21 C 12.863 21 16 17.863 16 14 L 10 14 L 10 7.071 Z " fill="rgb(255,255,255)" fill-opacity="0.35"/><path d=" M 10 14 L 16 14 C 16 17.863 12.863 21 9 21 C 5.137 21 2 17.863 2 14 C 2 10.137 5.137 7 9 7 C 9.339 7 9.673 7.024 10 7.071 L 10 14 Z  M 8 9.1 L 8 14 C 8 15.104 8.896 16 10 16 L 13.58 16 C 12.79 17.82 10.98 19 9 19 C 7.67 19 6.4 18.47 5.46 17.54 C 4.53 16.6 4 15.33 4 14 C 4 12.85 4.4 11.73 5.13 10.84 C 5.86 9.95 6.87 9.33 8 9.1 Z " fill-rule="evenodd" fill="rgb(255,255,255)"/></g></svg>