<?xml version="1.0" standalone="no"?><!-- Generator: Gravit.io --><svg xmlns="http://www.w3.org/2000/svg" xmlns:xlink="http://www.w3.org/1999/xlink" style="isolation:isolate" viewBox="24 72 24 24" width="24" height="24"><g id="drawing"><rect x="24" y="72" width="24" height="24" transform="matrix(1,0,0,1,0,0)" fill="none"/><path d="M 34.008 76 L 43.992 76 C 44.548 76 45 76.452 45 77.008 L 45 85.992 C 45 86.548 44.548 87 43.992 87 L 34.008 87 C 33.452 87 33 86.548 33 85.992 L 33 77.008 C 33 76.452 33.452 76 34.008 76 Z" style="fill:none;stroke:#FFFFFF;stroke-width:2;stroke-linecap:square;stroke-miterlimit:3;"/><path d=" M 34 79.071 C 33.673 79.024 33.339 79 33 79 C 29.137 79 26 82.137 26 86 C 26 89.863 29.137 93 33 93 C 36.863 93 40 89.863 40 86 L 34 86 L 34 79.071 Z " fill="rgb(255,255,255)" fill-opacity="0.35"/><mask id="_mask_2SUg6SekLtzhIU6kxRoOCgZ8uaFKKWZJ"><path d=" M 34 79.071 C 33.673 79.024 33.339 79 33 79 C 29.137 79 26 82.137 26 86 C 26 89.863 29.137 93 33 93 C 36.863 93 40 89.863 40 86 L 34 86 L 34 79.071 Z " fill="white" stroke="none"/></mask><path d=" M 34 79.071 C 33.673 79.024 33.339 79 33 79 C 29.137 79 26 82.137 26 86 C 26 89.863 29.137 93 33 93 C 36.863 93 40 89.863 40 86 L 34 86 L 34 79.071 Z " fill="none" mask="url(#_mask_2SUg6SekLtzhIU6kxRoOCgZ8uaFKKWZJ)" vector-effect="non-scaling-stroke" stroke-width="4" stroke="rgb(255,255,255)" stroke-linejoin="round" stroke-linecap="butt" stroke-miterlimit="3"/></g></svg>