<?xml version="1.0" standalone="no"?><!-- Generator: Gravit.io --><svg xmlns="http://www.w3.org/2000/svg" xmlns:xlink="http://www.w3.org/1999/xlink" style="isolation:isolate" viewBox="24 24 24 24" width="24" height="24"><g id="fills"><path d=" M 24 24 L 48 24 L 48 48 L 24 48 L 24 24 Z " fill="none"/><linearGradient id="_lgradient_3" x1="100%" y1="50%" x2="0%" y2="50.000000000000014%"><stop offset="0%" stop-opacity="1" style="stop-color:rgb(255,255,255)"/><stop offset="100%" stop-opacity="0" style="stop-color:rgb(255,255,255)"/></linearGradient><path d=" M 28 28 L 44 28 L 44 44 L 28 44 L 28 28 Z " fill="url(#_lgradient_3)"/><path d="M 29 28 L 43 28 C 43.552 28 44 28.448 44 29 L 44 43 C 44 43.552 43.552 44 43 44 L 29 44 C 28.448 44 28 43.552 28 43 L 28 29 C 28 28.448 28.448 28 29 28 Z" style="fill:none;stroke:#FFFFFF;stroke-width:2;stroke-linecap:square;stroke-miterlimit:3;"/></g></svg>