<?xml version="1.0" standalone="no"?><!-- Generator: Gravit.io --><svg xmlns="http://www.w3.org/2000/svg" xmlns:xlink="http://www.w3.org/1999/xlink" style="isolation:isolate" viewBox="24 24 24 24" width="24" height="24"><g id="fills"><path d=" M 24 24 L 48 24 L 48 48 L 24 48 L 24 24 Z " fill="none"/><path d=" M 29 27 L 31 27 L 32 27 L 34 27 L 35 27 L 36 27 L 37 27 L 38 27 L 40 27 L 41 27 L 43 27 C 44.104 27 45 27.896 45 29 L 45 43 C 45 44.104 44.104 45 43 45 L 41 45 L 40 45 L 38 45 L 37 45 L 36 45 L 35 45 L 34 45 L 32 45 L 31 45 L 29 45 C 27.896 45 27 44.104 27 43 L 27 29 C 27 27.896 27.896 27 29 27 L 29 27 Z  M 40 28 L 41 28 L 41 44 L 40 44 L 40 28 Z  M 37 28 L 38 28 L 38 44 L 37 44 L 37 28 Z  M 35 28 L 36 28 L 36 44 L 35 44 L 35 28 Z  M 32 28 L 34 28 L 34 44 L 32 44 L 32 28 Z  M 31 28 L 29 28 L 29 28 C 28.73 28 28.48 28.11 28.29 28.29 C 28.11 28.48 28 28.73 28 29 L 28 43 C 28 43.27 28.11 43.52 28.29 43.71 C 28.48 43.89 28.73 44 29 44 L 31 44 L 31 28 Z " fill-rule="evenodd" fill="rgb(255,255,255)"/></g></svg>