<?xml version="1.0" standalone="no"?><!-- Generator: Gravit.io --><svg xmlns="http://www.w3.org/2000/svg" xmlns:xlink="http://www.w3.org/1999/xlink" style="isolation:isolate" viewBox="0 0 24 24" width="24" height="24"><defs><clipPath id="_clipPath_NFnEIv8vMSziZAfHR7iVF7fjcxFcrIId"><rect width="24" height="24"/></clipPath></defs><g clip-path="url(#_clipPath_NFnEIv8vMSziZAfHR7iVF7fjcxFcrIId)"><path d=" M 0 0 L 24 0 L 24 24 L 0 24 L 0 0 L 0 0 L 0 0 Z " fill="none"/><rect x="4" y="4" width="8" height="8" transform="matrix(1,0,0,1,0,0)" fill="rgb(255,255,255)" fill-opacity="0.65"/><rect x="12" y="12" width="8" height="8" transform="matrix(1,0,0,1,0,0)" fill="rgb(255,255,255)" fill-opacity="0.65"/><path d=" M 5 4 L 19 4 C 19.552 4 20 4.448 20 5 L 20 19 C 20 19.552 19.552 20 19 20 L 5 20 C 4.448 20 4 19.552 4 19 L 4 5 C 4 4.448 4.448 4 5 4 Z  M 5 2 L 19 2 C 19.8 2 20.56 2.32 21.12 2.88 C 21.68 3.44 22 4.2 22 5 L 22 19 C 22 19.8 21.68 20.56 21.12 21.12 C 20.56 21.68 19.8 22 19 22 L 5 22 C 4.2 22 3.44 21.68 2.88 21.12 C 2.32 20.56 2 19.8 2 19 L 2 5 C 2 4.2 2.32 3.44 2.88 2.88 C 3.44 2.32 4.2 2 5 2 Z " fill-rule="evenodd" fill="rgb(255,255,255)"/></g></svg>