<?xml version="1.0" standalone="no"?><!-- Generator: Gravit.io --><svg xmlns="http://www.w3.org/2000/svg" xmlns:xlink="http://www.w3.org/1999/xlink" style="isolation:isolate" viewBox="48 48 24 24" width="24" height="24"><g id="folder"><rect x="48" y="48" width="24" height="24" transform="matrix(1,0,0,1,0,0)" fill="none"/><path d=" M 59.24 53 L 67 53 C 67.53 53 68.04 53.21 68.41 53.59 C 68.79 53.96 69 54.47 69 55 L 69 66 C 69 66.53 68.79 67.04 68.41 67.41 C 68.04 67.79 67.53 68 67 68 L 53 68 C 52.47 68 51.96 67.79 51.59 67.41 C 51.21 67.04 51 66.53 51 66 L 51 56 L 51 54.97 L 51.02 54.73 C 51.02 54.72 51.02 54.71 51.02 54.7 C 51.09 53.96 51.44 53.27 51.99 52.77 C 52.54 52.28 53.26 52 54 52 L 57 52 C 57.85 52 58.67 52.36 59.24 53 L 59.24 53 Z  M 67 57 L 67 66 L 53 66 L 53 57 L 67 57 Z  M 67 56 L 67 55 L 58.73 55 L 58.73 55 C 58.38 55 58.04 54.81 57.87 54.5 C 57.69 54.19 57.36 54 57 54 L 54 54 C 53.75 54 53.52 54.09 53.34 54.25 C 53.15 54.42 53.04 54.64 53.01 54.88 L 53 55.03 L 53 56 L 67 56 Z " fill-rule="evenodd" fill="rgb(255,255,255)"/></g></svg>