<?xml version="1.0" standalone="no"?><!-- Generator: Gravit.io --><svg xmlns="http://www.w3.org/2000/svg" xmlns:xlink="http://www.w3.org/1999/xlink" style="isolation:isolate" viewBox="0 0 16 16" width="16" height="16"><defs><clipPath id="_clipPath_19380K7bA50EIfHirQp5GxkXv8E0iLMS"><rect width="16" height="16"/></clipPath></defs><g clip-path="url(#_clipPath_19380K7bA50EIfHirQp5GxkXv8E0iLMS)"><rect width="16" height="16" style="fill:rgb(0,0,0)" fill-opacity="0"/><path d=" M 0 8 C 0 3.585 3.585 0 8 0 C 12.415 0 16 3.585 16 8 C 16 12.415 12.415 16 8 16 C 3.585 16 0 12.415 0 8 Z  M 9.047 9.437 L 6.948 9.437 L 6.948 8.849 L 6.948 8.849 Q 6.948 8.179 7.222 7.717 L 7.222 7.717 L 7.222 7.717 Q 7.495 7.256 8.192 6.818 L 8.192 6.818 L 8.192 6.818 Q 8.746 6.47 8.989 6.189 L 8.989 6.189 L 8.989 6.189 Q 9.231 5.909 9.231 5.547 L 9.231 5.547 L 9.231 5.547 Q 9.231 5.26 8.972 5.092 L 8.972 5.092 L 8.972 5.092 Q 8.712 4.925 8.295 4.925 L 8.295 4.925 L 8.295 4.925 Q 7.263 4.925 5.882 5.656 L 5.882 5.656 L 4.932 3.797 L 4.932 3.797 Q 6.634 2.826 8.486 2.826 L 8.486 2.826 L 8.486 2.826 Q 10.011 2.826 10.879 3.496 L 10.879 3.496 L 10.879 3.496 Q 11.747 4.166 11.747 5.321 L 11.747 5.321 L 11.747 5.321 Q 11.747 6.148 11.361 6.753 L 11.361 6.753 L 11.361 6.753 Q 10.975 7.358 10.127 7.898 L 10.127 7.898 L 10.127 7.898 Q 9.409 8.363 9.228 8.579 L 9.228 8.579 L 9.228 8.579 Q 9.047 8.794 9.047 9.088 L 9.047 9.088 L 9.047 9.437 L 9.047 9.437 L 9.047 9.437 Z  M 6.654 11.829 L 6.654 11.829 L 6.654 11.829 Q 6.654 11.2 7.02 10.858 L 7.02 10.858 L 7.02 10.858 Q 7.386 10.517 8.097 10.517 L 8.097 10.517 L 8.097 10.517 Q 8.78 10.517 9.146 10.862 L 9.146 10.862 L 9.146 10.862 Q 9.512 11.207 9.512 11.829 L 9.512 11.829 L 9.512 11.829 Q 9.512 12.451 9.132 12.793 L 9.132 12.793 L 9.132 12.793 Q 8.753 13.135 8.097 13.135 L 8.097 13.135 L 8.097 13.135 Q 7.42 13.135 7.037 12.796 L 7.037 12.796 L 7.037 12.796 Q 6.654 12.458 6.654 11.829 L 6.654 11.829 Z " fill-rule="evenodd" fill="rgb(255,255,255)"/></g></svg>