<?xml version="1.0" standalone="no"?><!-- Generator: Gravit.io --><svg xmlns="http://www.w3.org/2000/svg" xmlns:xlink="http://www.w3.org/1999/xlink" style="isolation:isolate" viewBox="72 24 24 24" width="24" height="24"><g id="image"><rect x="72" y="24" width="24" height="24" transform="matrix(1,0,0,1,0,0)" fill="none"/><path d=" M 75.006 42.151 C 75.083 43.184 75.947 44 77 44 L 91 44 C 92.104 44 93 43.104 93 42 L 93 39 L 93 30 C 93 28.896 92.104 28 91 28 L 77 28 L 77 28 C 75.896 28 75 28.896 75 30 L 75 42 C 75 42.047 75.002 42.094 75.005 42.14 L 75 42.145 L 75.006 42.151 Z  M 91 37 L 91 30 L 77 30 L 77 30 L 77 40.145 L 81 36.145 L 84.427 39.572 L 89 35 L 91 37 Z  M 91 38.416 L 91 42 L 86.855 42 L 85.137 40.282 L 89 36.41 L 91 38.416 Z  M 85.438 42 L 77 42 L 77 41.563 L 81 37.555 L 85.438 42 Z " fill-rule="evenodd" fill="rgb(255,255,255)"/><path d=" M 82 34 C 82 32.896 82.896 32 84 32 C 85.104 32 86 32.896 86 34 C 86 35.104 85.104 36 84 36 C 82.896 36 82 35.104 82 34 Z  M 83 34 C 83 33.73 83.11 33.48 83.29 33.29 C 83.48 33.11 83.73 33 84 33 C 84.27 33 84.52 33.11 84.71 33.29 C 84.89 33.48 85 33.73 85 34 C 85 34.27 84.89 34.52 84.71 34.71 C 84.52 34.89 84.27 35 84 35 C 83.73 35 83.48 34.89 83.29 34.71 C 83.11 34.52 83 34.27 83 34 Z " fill-rule="evenodd" fill="rgb(255,255,255)"/></g></svg>