<?xml version="1.0" standalone="no"?><!-- Generator: Gravit.io --><svg xmlns="http://www.w3.org/2000/svg" xmlns:xlink="http://www.w3.org/1999/xlink" style="isolation:isolate" viewBox="24 0 24 24" width="24" height="24"><g id="inputs"><path d=" M 24 0 L 48 0 L 48 24 L 24 24 L 24 0 Z " fill="none"/><path d=" M 28 5 L 44 5 C 45.104 5 46 5.896 46 7 L 46 15 C 46 16.104 45.104 17 44 17 L 28 17 C 26.896 17 26 16.104 26 15 L 26 7 C 26 5.896 26.896 5 28 5 Z  M 28 7 L 44 7 L 44 15 L 28 15 L 28 7 Z " fill-rule="evenodd" fill="rgb(255,255,255)"/><path d=" M 30 8 L 30.5 8 L 31.5 8 C 31.63 8 31.76 8.05 31.85 8.15 C 31.95 8.24 32 8.37 32 8.5 C 32 8.63 31.95 8.76 31.85 8.85 C 31.76 8.95 31.63 9 31.5 9 L 31 9 L 31 13 L 31.5 13 C 31.63 13 31.76 13.05 31.85 13.15 C 31.95 13.24 32 13.37 32 13.5 C 32 13.63 31.95 13.76 31.85 13.85 C 31.76 13.95 31.63 14 31.5 14 L 31 14 L 30.5 14 L 29.5 14 C 29.37 14 29.24 13.95 29.15 13.85 C 29.05 13.76 29 13.63 29 13.5 C 29 13.37 29.05 13.24 29.15 13.15 C 29.24 13.05 29.37 13 29.5 13 L 30 13 L 30 9 L 29.5 9 C 29.37 9 29.24 8.95 29.15 8.85 C 29.05 8.76 29 8.63 29 8.5 C 29 8.37 29.05 8.24 29.15 8.15 C 29.24 8.05 29.37 8 29.5 8 L 30 8 Z " fill="rgb(255,255,255)"/></g></svg>