<?xml version="1.0" standalone="no"?><!-- Generator: Gravit.io --><svg xmlns="http://www.w3.org/2000/svg" xmlns:xlink="http://www.w3.org/1999/xlink" style="isolation:isolate" viewBox="0 48 24 24" width="24" height="24"><g id="loadImage"><rect x="0" y="48" width="24" height="24" transform="matrix(1,0,0,1,0,0)" fill="none"/><path d=" M 5.708 67 L 5 67 C 3.896 67 3 66.104 3 65 L 3 53 C 3 51.896 3.896 51 5 51 L 12 51 L 12 53 L 5 53 L 5 65 L 6.243 65 C 6.274 64.959 6.306 64.918 6.339 64.877 L 12 57.8 L 17.661 64.877 C 17.694 64.918 17.726 64.959 17.757 65 L 19 65 L 19 53 L 12 53 L 12 51 L 19 51 C 20.104 51 21 51.896 21 53 L 21 65 C 21 66.104 20.104 67 19 67 L 18.292 67 C 18.054 67.615 17.318 68 16.16 68 L 15 68 L 15 69 C 15 70.104 14.104 71 13 71 L 11 71 C 9.896 71 9 70.104 9 69 L 9 68 L 7.84 68 C 6.682 68 5.946 67.615 5.708 67 Z  M 13 66 L 13 69 L 11 69 L 11 66 L 8 66 L 12 61 L 16 66 L 13 66 Z " fill-rule="evenodd" fill="rgb(255,255,255)"/></g></svg>