<?xml version="1.0" standalone="no"?><!-- Generator: Gravit.io --><svg xmlns="http://www.w3.org/2000/svg" xmlns:xlink="http://www.w3.org/1999/xlink" style="isolation:isolate" viewBox="72 48 24 24" width="24" height="24"><g id="newFilter"><rect x="72" y="48" width="24" height="24" transform="matrix(1,0,0,1,0,0)" fill="none"/><path d=" M 91 55 L 91 66.111 C 91 67.154 90.104 68 89 68 L 80 68 C 78.896 68 78 67.154 78 66.111 L 78 52.889 C 78 51.846 78.896 51 80 51 L 87 51 L 91 55 Z  M 80 53 L 86.17 53 L 89 55.83 L 89 66 L 80 66 L 80 53 Z  M 80 66 L 89 66 L 80 66 Z " fill-rule="evenodd" fill="rgb(255,255,255)"/><path d=" M 89 56 L 89 57 L 85 57 L 85 53 L 86 53 L 86 56 L 89 56 Z " fill-rule="evenodd" fill="rgb(255,255,255)"/></g></svg>