<?xml version="1.0" standalone="no"?><!-- Generator: Gravit.io --><svg xmlns="http://www.w3.org/2000/svg" xmlns:xlink="http://www.w3.org/1999/xlink" style="isolation:isolate" viewBox="24 48 24 24" width="24" height="24"><g id="newImage"><rect x="24" y="48" width="24" height="24" transform="matrix(1,0,0,1,0,0)" fill="none"/><path d=" M 43 57.907 L 43 66 L 29 66 L 29 54 L 39.66 54 C 39.25 54.3 39.01 54.77 39 55.27 C 39 55.52 39.06 55.77 39.18 55.99 C 39.44 56.45 39.94 56.74 40.48 56.72 C 40.67 56.72 40.86 56.68 41.04 56.61 C 41.08 56.9 41.19 57.17 41.36 57.41 C 41.62 57.78 42.05 58 42.5 58 C 42.672 58 42.842 57.968 43 57.907 Z  M 44.788 53.157 C 44.788 53.157 44.788 53.157 44.788 53.157 C 44.757 53.189 44.722 53.216 44.683 53.239 L 43.442 54 L 43.442 54 L 43.442 54 L 44.683 54.761 C 44.883 54.883 45 55.091 45 55.287 C 45 55.287 45 55.287 45 55.287 C 45 55.361 44.983 55.434 44.947 55.5 C 44.817 55.739 44.488 55.796 44.212 55.627 L 43.615 55.261 L 42.971 54.866 L 42.971 56.388 C 42.971 56.726 42.76 57 42.5 57 C 42.24 57 42.029 56.726 42.029 56.388 L 42.029 54.866 L 40.788 55.627 C 40.512 55.796 40.183 55.739 40.053 55.5 C 39.923 55.261 40.041 54.93 40.317 54.761 L 41.558 54 L 41.558 54 L 40.317 53.239 C 40.041 53.07 39.923 52.739 40.053 52.5 C 40.183 52.261 40.512 52.204 40.788 52.373 L 41.385 52.739 L 41.385 52.739 L 42.029 53.134 L 42.029 53.134 L 42.029 52 L 42.029 51.612 C 42.029 51.274 42.24 51 42.5 51 C 42.76 51 42.971 51.274 42.971 51.612 L 42.971 52 L 42.971 52 L 42.971 53.134 L 42.971 53.134 L 43.615 52.739 L 44.186 52.39 C 44.186 52.39 44.186 52.39 44.186 52.39 L 44.212 52.373 L 44.212 52.373 C 44.488 52.204 44.817 52.261 44.947 52.5 C 45.059 52.706 44.987 52.98 44.788 53.157 Z  M 45 56.655 L 45 66 C 45 67.104 44.104 68 43 68 L 29 68 C 27.896 68 27 67.104 27 66 L 27 54 C 27 52.896 27.896 52 29 52 L 39.186 52 C 39.447 51.546 39.944 51.26 40.48 51.28 C 40.67 51.28 40.86 51.32 41.04 51.39 C 41.08 51.1 41.19 50.83 41.36 50.59 C 41.62 50.22 42.05 50 42.5 50 C 42.95 50 43.38 50.22 43.64 50.59 C 43.81 50.83 43.92 51.1 43.96 51.39 C 44.14 51.32 44.34 51.28 44.53 51.28 C 45.06 51.26 45.56 51.55 45.82 52.01 C 45.94 52.23 46 52.48 46 52.73 C 45.99 53.23 45.75 53.7 45.34 54 C 45.75 54.3 45.99 54.77 46 55.27 C 46 55.52 45.94 55.77 45.82 55.99 C 45.64 56.309 45.344 56.546 45 56.655 L 45 56.655 Z " fill-rule="evenodd" fill="rgb(255,255,255)"/></g></svg>