<?xml version="1.0" standalone="no"?><!-- Generator: Gravit.io --><svg xmlns="http://www.w3.org/2000/svg" xmlns:xlink="http://www.w3.org/1999/xlink" style="isolation:isolate" viewBox="72 0 24 24" width="24" height="24"><g id="noise"><rect x="72" y="0" width="24" height="24" transform="matrix(1,0,0,1,0,0)" fill="none"/><path d=" M 75 8.053 L 75 13.236 C 77.751 13.783 80.195 10.698 80 8 C 79.781 4.976 80.017 5.874 80 3 L 77 3 C 75.896 3 75 3.896 75 5 L 75 5.446 C 78.4 3.735 76.95 6.362 75 8.053 L 75 8.053 Z " fill="rgb(255,255,255)"/><path d=" M 88.449 21 L 88.449 21 C 88.639 20.171 89.459 19.362 90.656 18.324 C 91.096 11.844 83.04 16.847 82.096 21 L 77 21 C 75.896 21 75 20.104 75 19 L 75 16.856 C 76.038 16.738 77.398 16.45 79.166 15.945 C 83.394 14.313 83.513 11.397 83.145 8.564 C 82.875 6.484 82.342 4.447 82.989 3 L 91 3 C 92.104 3 93 3.896 93 5 L 93 19 C 93 20.104 92.104 21 91 21 L 88.449 21 Z  M 87.012 4.809 C 84.076 5.011 95.048 17.957 92 9 C 88.952 0.043 89.948 4.606 87.012 4.809 Z  M 84.481 11.946 C 83.478 13.772 88.114 14.341 87 11 Q 85.886 7.659 84.481 11.946 Z " fill-rule="evenodd" fill="rgb(255,255,255)"/><path d=" M 77 3 L 91 3 C 92.104 3 93 3.896 93 5 L 93 19 C 93 20.104 92.104 21 91 21 L 77 21 C 75.896 21 75 20.104 75 19 L 75 5 C 75 3.896 75.896 3 77 3 Z  M 77 4 L 91 4 C 91.27 4 91.52 4.11 91.71 4.29 C 91.89 4.48 92 4.73 92 5 L 92 19 C 92 19.27 91.89 19.52 91.71 19.71 C 91.52 19.89 91.27 20 91 20 L 77 20 C 76.73 20 76.48 19.89 76.29 19.71 C 76.11 19.52 76 19.27 76 19 L 76 5 C 76 4.73 76.11 4.48 76.29 4.29 C 76.48 4.11 76.73 4 77 4 Z " fill-rule="evenodd" fill="rgb(255,255,255)"/></g></svg>