<?xml version="1.0" standalone="no"?><!-- Generator: Gravit.io --><svg xmlns="http://www.w3.org/2000/svg" xmlns:xlink="http://www.w3.org/1999/xlink" style="isolation:isolate" viewBox="0 24 24 24" width="24" height="24"><g id="processing"><path d=" M 0 24 L 24 24 L 24 48 L 0 48 L 0 24 Z " fill="none"/><path d=" M 9 29.67 L 9 29 C 9 28.2 9.32 27.44 9.88 26.88 C 10.44 26.32 11.2 26 12 26 C 12.8 26 13.56 26.32 14.12 26.88 C 14.68 27.44 15 28.2 15 29 L 15 29.67 C 15.34 29.84 15.67 30.03 15.98 30.24 L 16.56 29.9 C 17.02 29.64 17.53 29.5 18.06 29.5 C 19.13 29.5 20.12 30.07 20.66 31 C 20.92 31.45 21.06 31.97 21.06 32.5 C 21.06 33.57 20.49 34.56 19.56 35.1 C 19.56 35.1 19.56 35.1 19.56 35.1 L 18.98 35.44 C 18.99 35.62 19 35.81 19 36 C 19 36.19 18.99 36.38 18.98 36.56 L 19.56 36.9 C 19.56 36.9 19.56 36.9 19.56 36.9 C 20.49 37.44 21.06 38.43 21.06 39.5 C 21.06 40.03 20.92 40.55 20.66 41 C 20.12 41.93 19.13 42.5 18.06 42.5 C 17.53 42.5 17.02 42.36 16.56 42.1 L 15.98 41.76 C 15.67 41.97 15.34 42.16 15 42.33 L 15 43 C 15 43.8 14.68 44.56 14.12 45.12 C 13.56 45.68 12.8 46 12 46 C 11.2 46 10.44 45.68 9.88 45.12 C 9.32 44.56 9 43.8 9 43 L 9 42.33 C 8.66 42.16 8.33 41.97 8.02 41.76 L 7.44 42.1 C 6.98 42.36 6.47 42.5 5.94 42.5 C 4.87 42.5 3.88 41.93 3.34 41 C 3.08 40.55 2.94 40.03 2.94 39.5 C 2.94 38.43 3.51 37.44 4.44 36.9 C 4.44 36.9 4.44 36.9 4.44 36.9 L 5.02 36.56 C 5.01 36.38 5 36.19 5 36 C 5 35.81 5.01 35.62 5.02 35.44 L 4.44 35.1 C 4.44 35.1 4.44 35.1 4.44 35.1 C 3.51 34.56 2.94 33.57 2.94 32.5 C 2.94 31.97 3.08 31.45 3.34 31 C 3.88 30.07 4.87 29.5 5.94 29.5 C 6.47 29.5 6.98 29.64 7.44 29.9 L 8.02 30.24 C 8.33 30.03 8.66 29.84 9 29.67 Z  M 11 30.34 L 11 29 C 11 28.73 11.11 28.48 11.29 28.29 C 11.48 28.11 11.73 28 12 28 C 12.27 28 12.52 28.11 12.71 28.29 C 12.89 28.48 13 28.73 13 29 L 13 30.34 C 13 30.76 13.27 31.14 13.67 31.28 C 14.24 31.49 14.78 31.8 15.25 32.2 C 15.57 32.47 16.03 32.52 16.4 32.31 L 17.56 31.63 C 17.56 31.63 17.56 31.63 17.56 31.63 C 17.71 31.55 17.89 31.5 18.06 31.5 C 18.42 31.5 18.75 31.69 18.93 32 C 19.02 32.15 19.06 32.32 19.06 32.5 C 19.06 32.86 18.87 33.19 18.56 33.37 L 17.4 34.04 C 17.03 34.25 16.84 34.67 16.92 35.08 C 16.97 35.39 17 35.69 17 36 C 17 36.31 16.97 36.61 16.92 36.92 C 16.84 37.33 17.03 37.75 17.4 37.96 L 18.56 38.63 C 18.87 38.81 19.06 39.14 19.06 39.5 C 19.06 39.68 19.02 39.85 18.93 40 C 18.75 40.31 18.42 40.5 18.06 40.5 C 17.89 40.5 17.71 40.45 17.56 40.37 C 17.56 40.37 17.56 40.37 17.56 40.37 L 16.4 39.69 C 16.03 39.48 15.57 39.53 15.25 39.8 C 14.78 40.2 14.24 40.51 13.67 40.72 C 13.27 40.86 13 41.24 13 41.66 L 13 43 C 13 43.27 12.89 43.52 12.71 43.71 C 12.52 43.89 12.27 44 12 44 C 11.73 44 11.48 43.89 11.29 43.71 C 11.11 43.52 11 43.27 11 43 L 11 41.66 C 11 41.24 10.73 40.86 10.33 40.72 C 9.76 40.51 9.22 40.2 8.75 39.8 C 8.43 39.53 7.97 39.48 7.6 39.69 L 6.44 40.37 C 6.44 40.37 6.44 40.37 6.44 40.37 C 6.29 40.45 6.11 40.5 5.94 40.5 C 5.58 40.5 5.25 40.31 5.07 40 C 4.98 39.85 4.94 39.68 4.94 39.5 C 4.94 39.14 5.13 38.81 5.44 38.63 L 6.6 37.96 C 6.97 37.75 7.16 37.33 7.08 36.92 C 7.03 36.61 7 36.31 7 36 C 7 35.69 7.03 35.39 7.08 35.08 C 7.16 34.67 6.97 34.25 6.6 34.04 L 5.44 33.37 C 5.13 33.19 4.94 32.86 4.94 32.5 C 4.94 32.32 4.98 32.15 5.07 32 C 5.25 31.69 5.58 31.5 5.94 31.5 C 6.11 31.5 6.29 31.55 6.44 31.63 C 6.44 31.63 6.44 31.63 6.44 31.63 L 7.6 32.31 C 7.97 32.52 8.43 32.47 8.75 32.2 C 9.22 31.8 9.76 31.49 10.33 31.28 C 10.73 31.14 11 30.76 11 30.34 Z " fill-rule="evenodd" fill="rgb(255,255,255)"/><path d=" M 9 36 C 9 34.344 10.344 33 12 33 C 13.656 33 15 34.344 15 36 C 15 37.656 13.656 39 12 39 C 10.344 39 9 37.656 9 36 Z  M 10 36 C 10 35.47 10.21 34.96 10.59 34.59 C 10.96 34.21 11.47 34 12 34 C 12.53 34 13.04 34.21 13.41 34.59 C 13.79 34.96 14 35.47 14 36 C 14 36.53 13.79 37.04 13.41 37.41 C 13.04 37.79 12.53 38 12 38 C 11.47 38 10.96 37.79 10.59 37.41 C 10.21 37.04 10 36.53 10 36 Z " fill-rule="evenodd" fill="rgb(255,255,255)"/></g></svg>