<?xml version="1.0" standalone="no"?><!-- Generator: Gravit.io --><svg xmlns="http://www.w3.org/2000/svg" xmlns:xlink="http://www.w3.org/1999/xlink" style="isolation:isolate" viewBox="48 24 24 24" width="24" height="24"><g id="Save"><rect x="48" y="24" width="24" height="24" transform="matrix(1,0,0,1,0,0)" fill="none"/><path d=" M 69 32 L 69 43 C 69 44.104 68.104 45 67 45 L 54 45 C 52.896 45 52 44.104 52 43 L 52 29 C 52 27.896 52.896 27 54 27 L 64 27 L 69 32 L 69 32 Z  M 63 33 L 63 29 L 63.17 29 L 67 32.83 L 67 43 L 54 43 L 54 29 L 55 29 L 55 34 L 56 34 L 62 34 L 63 34 L 63 33 Z  M 62 33 L 62 29 L 56 29 L 56 29 L 56 33 L 62 33 Z  M 59 37.5 C 59 36.672 59.672 36 60.5 36 C 61.328 36 62 36.672 62 37.5 C 62 38.328 61.328 39 60.5 39 C 59.672 39 59 38.328 59 37.5 Z  M 58 37.5 C 58 36.84 58.26 36.2 58.73 35.73 C 59.2 35.26 59.84 35 60.5 35 C 61.16 35 61.8 35.26 62.27 35.73 C 62.74 36.2 63 36.84 63 37.5 C 63 38.16 62.74 38.8 62.27 39.27 C 61.8 39.74 61.16 40 60.5 40 C 59.84 40 59.2 39.74 58.73 39.27 C 58.26 38.8 58 38.16 58 37.5 Z " fill-rule="evenodd" fill="rgb(0,0,0)"/></g></svg>