<?xml version="1.0" standalone="no"?><!-- Generator: Gravit.io --><svg xmlns="http://www.w3.org/2000/svg" xmlns:xlink="http://www.w3.org/1999/xlink" style="isolation:isolate" viewBox="0 0 24 24" width="24" height="24"><defs><clipPath id="_clipPath_YVBtrYDLnUCsVy8JqEy2wT5Q5HntQG7t"><rect width="24" height="24"/></clipPath></defs><g clip-path="url(#_clipPath_YVBtrYDLnUCsVy8JqEy2wT5Q5HntQG7t)"><rect width="24" height="24" style="fill:rgb(0,0,0)" fill-opacity="0"/><path d=" M 12 4 L 12 4 C 16.415 4 20 7.585 20 12 C 20 16.415 16.415 20 12 20 L 12 4 Z " fill="rgb(255,255,255)"/><circle vector-effect="non-scaling-stroke" cx="12" cy="12" r="2" fill="rgb(255,255,255)"/><circle vector-effect="non-scaling-stroke" cx="3" cy="12" r="1" fill="rgb(255,255,255)"/><path d=" M 12 20 C 12.552 20 13 20.448 13 21 C 13 21.552 12.552 22 12 22 C 11.448 22 11 21.552 11 21 C 11 20.448 11.448 20 12 20 Z " fill="rgb(255,255,255)"/><path d=" M 12 2 C 12.552 2 13 2.448 13 3 C 13 3.552 12.552 4 12 4 C 11.448 4 11 3.552 11 3 C 11 2.448 11.448 2 12 2 Z " fill="rgb(255,255,255)"/><path d=" M 4.929 4.929 C 5.319 4.539 5.953 4.539 6.343 4.929 C 6.733 5.319 6.733 5.953 6.343 6.343 C 5.953 6.733 5.319 6.733 4.929 6.343 C 4.539 5.953 4.539 5.319 4.929 4.929 Z " fill="rgb(255,255,255)"/><path d=" M 6.343 17.657 C 6.733 18.047 6.733 18.681 6.343 19.071 C 5.953 19.461 5.319 19.461 4.929 19.071 C 4.539 18.681 4.539 18.047 4.929 17.657 C 5.319 17.267 5.953 17.267 6.343 17.657 Z " fill="rgb(255,255,255)"/><path d=" M 2.761 8.173 C 2.972 7.663 3.558 7.421 4.068 7.632 C 4.578 7.843 4.82 8.429 4.609 8.939 C 4.398 9.448 3.812 9.691 3.302 9.48 C 2.792 9.269 2.55 8.683 2.761 8.173 Z " fill="rgb(255,255,255)"/><path d=" M 8.939 19.391 C 9.448 19.602 9.691 20.188 9.48 20.698 C 9.269 21.208 8.683 21.45 8.173 21.239 C 7.663 21.028 7.421 20.442 7.632 19.932 C 7.843 19.422 8.429 19.18 8.939 19.391 Z " fill="rgb(255,255,255)"/><path d=" M 8.173 2.761 C 8.683 2.55 9.269 2.792 9.48 3.302 C 9.691 3.812 9.448 4.398 8.939 4.609 C 8.429 4.82 7.843 4.578 7.632 4.068 C 7.421 3.558 7.663 2.972 8.173 2.761 Z " fill="rgb(255,255,255)"/><path d=" M 4.609 15.061 C 4.82 15.571 4.578 16.157 4.068 16.368 C 3.558 16.579 2.972 16.337 2.761 15.827 C 2.55 15.317 2.792 14.731 3.302 14.52 C 3.812 14.309 4.398 14.552 4.609 15.061 Z " fill="rgb(255,255,255)"/><circle vector-effect="non-scaling-stroke" cx="7" cy="12" r="1.5" fill="rgb(255,255,255)"/><circle vector-effect="non-scaling-stroke" cx="8.5" cy="8.5" r="1.5" fill="rgb(255,255,255)"/><circle vector-effect="non-scaling-stroke" cx="8.5" cy="15.5" r="1.5" fill="rgb(255,255,255)"/><path d=" M 12 15.5 C 12.828 15.5 13.5 16.172 13.5 17 C 13.5 17.828 12.828 18.5 12 18.5 C 11.172 18.5 10.5 17.828 10.5 17 C 10.5 16.172 11.172 15.5 12 15.5 Z " fill="rgb(255,255,255)"/><path d=" M 12 5.5 C 12.828 5.5 13.5 6.172 13.5 7 C 13.5 7.828 12.828 8.5 12 8.5 C 11.172 8.5 10.5 7.828 10.5 7 C 10.5 6.172 11.172 5.5 12 5.5 Z " fill="rgb(255,255,255)"/><path d=" M 13 22 C 13 22.27 12.89 22.52 12.71 22.71 C 12.52 22.89 12.27 23 12 23 C 11.73 23 11.48 22.89 11.29 22.71 C 11.11 22.52 11 22.27 11 22 L 11 2 C 11 1.73 11.11 1.48 11.29 1.29 C 11.48 1.11 11.73 1 12 1 C 12.27 1 12.52 1.11 12.71 1.29 C 12.89 1.48 13 1.73 13 2 L 13 22 Z " fill="rgb(255,255,255)"/></g></svg>