<?xml version="1.0" standalone="no"?><!-- Generator: Gravit.io --><svg xmlns="http://www.w3.org/2000/svg" xmlns:xlink="http://www.w3.org/1999/xlink" style="isolation:isolate" viewBox="48 72 24 24" width="24" height="24"><g id="utils"><rect x="48" y="72" width="24" height="24" transform="matrix(1,0,0,1,0,0)" fill="none"/><path d=" M 70 77.5 L 70 79.837 C 70 80.902 69.42 81.765 68.67 82.518 C 67.92 83.271 66.91 84.007 65.84 84.007 L 64.43 84.007 L 59.998 88.485 L 60 90 C 60 91.075 59.23 91.991 58.48 92.744 C 57.73 93.498 56.47 94 55.41 94 L 53.495 94 C 52.668 94 51.548 93.552 50.998 93 C 50.447 92.448 50 91.328 50 90.5 L 50 88.244 C 50 87.18 50.42 86.155 51.17 85.402 C 51.92 84.648 52.935 83.993 54.005 83.993 L 55.415 83.993 L 60 79.439 L 60 78.023 C 60 76.948 60.61 75.929 61.36 75.175 C 62.11 74.422 63.37 74 64.43 74 L 66.5 74 C 67.328 74 68.448 74.448 69 75 C 69.552 75.552 70 76.672 70 77.5 Z  M 56.243 86 L 61.998 80.271 L 61.998 78.018 C 61.998 76.909 63.084 76.004 64.188 76.004 L 66.43 76.004 L 65.016 77.425 C 64.626 77.817 64.626 78.453 65.016 78.845 C 65.406 79.237 66.04 79.237 66.43 78.845 L 68 77.425 L 68 79.677 C 68 80.786 67.104 82 66 82 L 63.602 82 L 58 87.654 L 58 90 C 58 91.109 56.756 92 55.652 92 L 53.41 92 L 54.824 90.495 C 55.214 90.103 55.214 89.466 54.824 89.074 C 54.434 88.682 53.8 88.682 53.41 89.074 L 51.995 90.495 L 51.995 88.242 C 51.995 87.133 52.896 86 54 86 L 56.243 86 Z " fill-rule="evenodd" fill="rgb(255,255,255)"/></g></svg>