<?xml version="1.0" encoding="UTF-8"?><!DOCTYPE svg PUBLIC "-//W3C//DTD SVG 1.1//EN" "http://www.w3.org/Graphics/SVG/1.1/DTD/svg11.dtd"><svg xmlns="http://www.w3.org/2000/svg" xmlns:xlink="http://www.w3.org/1999/xlink"><symbol id="Save" viewBox="48 24 24 24"><g id="Save"><rect x="48" y="24" width="24" height="24" transform="matrix(1,0,0,1,0,0)" fill="none"/><path d=" M 69 32 L 69 43 C 69 44.104 68.104 45 67 45 L 54 45 C 52.896 45 52 44.104 52 43 L 52 29 C 52 27.896 52.896 27 54 27 L 64 27 L 69 32 L 69 32 Z  M 63 33 L 63 29 L 63.17 29 L 67 32.83 L 67 43 L 54 43 L 54 29 L 55 29 L 55 34 L 56 34 L 62 34 L 63 34 L 63 33 Z  M 62 33 L 62 29 L 56 29 L 56 29 L 56 33 L 62 33 Z  M 59 37.5 C 59 36.672 59.672 36 60.5 36 C 61.328 36 62 36.672 62 37.5 C 62 38.328 61.328 39 60.5 39 C 59.672 39 59 38.328 59 37.5 Z  M 58 37.5 C 58 36.84 58.26 36.2 58.73 35.73 C 59.2 35.26 59.84 35 60.5 35 C 61.16 35 61.8 35.26 62.27 35.73 C 62.74 36.2 63 36.84 63 37.5 C 63 38.16 62.74 38.8 62.27 39.27 C 61.8 39.74 61.16 40 60.5 40 C 59.84 40 59.2 39.74 58.73 39.27 C 58.26 38.8 58 38.16 58 37.5 Z " fill-rule="evenodd" fill="rgb(0,0,0)"/></g></symbol><symbol id="channels" viewBox="0 0 24 24"><g id="channels"><rect x="0" y="0" width="24" height="24" transform="matrix(1,0,0,1,0,0)" fill="none"/><path d=" M 18 19 C 18 18.73 18.11 18.48 18.29 18.29 C 18.48 18.11 18.73 18 19 18 C 19.27 18 19.52 18.11 19.71 18.29 C 19.89 18.48 20 18.73 20 19 C 20 19.27 19.89 19.52 19.71 19.71 C 19.52 19.89 19.27 20 19 20 C 18.73 20 18.48 19.89 18.29 19.71 C 18.11 19.52 18 19.27 18 19 Z  M 6.828 13 L 10 13 L 10 17 C 10 18.656 11.344 20 13 20 L 16.172 20 C 16.321 20.418 16.562 20.802 16.88 21.12 C 17.44 21.68 18.2 22 19 22 C 19.8 22 20.56 21.68 21.12 21.12 C 21.68 20.56 22 19.8 22 19 C 22 18.2 21.68 17.44 21.12 16.88 C 20.56 16.32 19.8 16 19 16 C 18.2 16 17.44 16.32 16.88 16.88 C 16.562 17.198 16.321 17.582 16.172 18 L 13 18 C 12.448 18 12 17.552 12 17 L 12 13 L 16.172 13 C 16.321 13.418 16.562 13.802 16.88 14.12 C 17.44 14.68 18.2 15 19 15 C 19.8 15 20.56 14.68 21.12 14.12 C 21.68 13.56 22 12.8 22 12 C 22 11.2 21.68 10.44 21.12 9.88 C 20.56 9.32 19.8 9 19 9 C 18.2 9 17.44 9.32 16.88 9.88 C 16.562 10.198 16.321 10.582 16.172 11 L 12 11 L 12 7 C 12 6.448 12.448 6 13 6 L 16.172 6 C 16.321 6.418 16.562 6.802 16.88 7.12 C 17.44 7.68 18.2 8 19 8 C 19.8 8 20.56 7.68 21.12 7.12 C 21.68 6.56 22 5.8 22 5 C 22 4.2 21.68 3.44 21.12 2.88 C 20.56 2.32 19.8 2 19 2 C 18.2 2 17.44 2.32 16.88 2.88 C 16.562 3.198 16.321 3.582 16.172 4 L 13 4 C 11.344 4 10 5.344 10 7 L 10 11 L 6.828 11 C 6.679 10.582 6.438 10.198 6.12 9.88 C 5.56 9.32 4.8 9 4 9 C 3.2 9 2.44 9.32 1.88 9.88 C 1.32 10.44 1 11.2 1 12 C 1 12.8 1.32 13.56 1.88 14.12 C 2.44 14.68 3.2 15 4 15 C 4.8 15 5.56 14.68 6.12 14.12 C 6.438 13.802 6.679 13.418 6.828 13 Z  M 18 5 C 18 5.27 18.11 5.52 18.29 5.71 C 18.48 5.89 18.73 6 19 6 C 19.27 6 19.52 5.89 19.71 5.71 C 19.89 5.52 20 5.27 20 5 C 20 4.73 19.89 4.48 19.71 4.29 C 19.52 4.11 19.27 4 19 4 C 18.73 4 18.48 4.11 18.29 4.29 C 18.11 4.48 18 4.73 18 5 Z  M 3 12 C 3 11.73 3.11 11.48 3.29 11.29 C 3.48 11.11 3.73 11 4 11 C 4.27 11 4.52 11.11 4.71 11.29 C 4.89 11.48 5 11.73 5 12 C 5 12.27 4.89 12.52 4.71 12.71 C 4.52 12.89 4.27 13 4 13 C 3.73 13 3.48 12.89 3.29 12.71 C 3.11 12.52 3 12.27 3 12 Z  M 16.172 11 M 18 12 C 18 11.73 18.11 11.48 18.29 11.29 C 18.48 11.11 18.73 11 19 11 C 19.27 11 19.52 11.11 19.71 11.29 C 19.89 11.48 20 11.73 20 12 C 20 12.27 19.89 12.52 19.71 12.71 C 19.52 12.89 19.27 13 19 13 C 18.73 13 18.48 12.89 18.29 12.71 C 18.11 12.52 18 12.27 18 12 Z " fill-rule="evenodd" fill="rgb(255,255,255)"/></g></symbol><symbol id="convert" viewBox="48 0 24 24"><g id="convert"><rect x="48" y="0" width="24" height="24" transform="matrix(1,0,0,1,0,0)" fill="none"/><path d=" M 54.368 18.311 L 52.57 12.918 L 49.845 11.141 C 48.921 10.538 48.921 9.558 49.845 8.955 L 52.57 7.178 L 54.368 1.785 C 54.717 0.738 55.283 0.738 55.632 1.785 L 57.43 7.178 L 60.155 8.955 C 61.079 9.558 61.079 10.538 60.155 11.141 L 57.43 12.918 L 55.632 18.311 C 55.283 19.358 54.717 19.358 54.368 18.311 Z  M 55 13.888 L 54.25 11.628 L 51.83 10.048 L 54.25 8.468 L 55 6.208 L 55.75 8.468 L 58.17 10.048 L 55.75 11.628 L 55 13.888 Z " fill-rule="evenodd" fill="rgb(255,255,255)"/><path d=" M 62 22.048 L 60.939 20.109 L 59 19.048 L 60.939 17.987 L 62 16.048 L 63.061 17.987 L 65 19.048 L 63.061 20.109 L 62 22.048 Z  M 61.519 23.251 L 60.2 20.848 L 57.797 19.529 C 57.313 19.264 57.313 18.832 57.797 18.567 L 60.2 17.248 L 61.519 14.845 C 61.784 14.361 62.216 14.361 62.481 14.845 L 63.8 17.248 L 66.203 18.567 C 66.687 18.832 66.687 19.264 66.203 19.529 L 63.8 20.848 L 62.481 23.251 C 62.216 23.735 61.784 23.735 61.519 23.251 Z " fill-rule="evenodd" fill="rgb(255,255,255)"/><path d=" M 67 15.048 L 65.939 13.109 L 64 12.048 L 65.939 10.987 L 67 9.048 L 68.061 10.987 L 70 12.048 L 68.061 13.109 L 67 15.048 Z  M 66.519 16.251 L 65.2 13.848 L 62.797 12.529 C 62.313 12.264 62.313 11.832 62.797 11.567 L 65.2 10.248 L 66.519 7.845 C 66.784 7.361 67.216 7.361 67.481 7.845 L 68.8 10.248 L 71.203 11.567 C 71.687 11.832 71.687 12.264 71.203 12.529 L 68.8 13.848 L 67.481 16.251 C 67.216 16.735 66.784 16.735 66.519 16.251 Z " fill-rule="evenodd" fill="rgb(255,255,255)"/></g></symbol><symbol id="fills" viewBox="24 24 24 24"><g id="fills"><path d=" M 24 24 L 48 24 L 48 48 L 24 48 L 24 24 Z " fill="none"/><path d=" M 29 27 L 31 27 L 32 27 L 34 27 L 35 27 L 36 27 L 37 27 L 38 27 L 40 27 L 41 27 L 43 27 C 44.104 27 45 27.896 45 29 L 45 43 C 45 44.104 44.104 45 43 45 L 41 45 L 40 45 L 38 45 L 37 45 L 36 45 L 35 45 L 34 45 L 32 45 L 31 45 L 29 45 C 27.896 45 27 44.104 27 43 L 27 29 C 27 27.896 27.896 27 29 27 L 29 27 Z  M 40 28 L 41 28 L 41 44 L 40 44 L 40 28 Z  M 37 28 L 38 28 L 38 44 L 37 44 L 37 28 Z  M 35 28 L 36 28 L 36 44 L 35 44 L 35 28 Z  M 32 28 L 34 28 L 34 44 L 32 44 L 32 28 Z  M 31 28 L 29 28 L 29 28 C 28.73 28 28.48 28.11 28.29 28.29 C 28.11 28.48 28 28.73 28 29 L 28 43 C 28 43.27 28.11 43.52 28.29 43.71 C 28.48 43.89 28.73 44 29 44 L 31 44 L 31 28 Z " fill-rule="evenodd" fill="rgb(255,255,255)"/></g></symbol><symbol id="folder" viewBox="48 48 24 24"><g id="folder"><rect x="48" y="48" width="24" height="24" transform="matrix(1,0,0,1,0,0)" fill="none"/><path d=" M 59.24 53 L 67 53 C 67.53 53 68.04 53.21 68.41 53.59 C 68.79 53.96 69 54.47 69 55 L 69 66 C 69 66.53 68.79 67.04 68.41 67.41 C 68.04 67.79 67.53 68 67 68 L 53 68 C 52.47 68 51.96 67.79 51.59 67.41 C 51.21 67.04 51 66.53 51 66 L 51 56 L 51 54.97 L 51.02 54.73 C 51.02 54.72 51.02 54.71 51.02 54.7 C 51.09 53.96 51.44 53.27 51.99 52.77 C 52.54 52.28 53.26 52 54 52 L 57 52 C 57.85 52 58.67 52.36 59.24 53 L 59.24 53 Z  M 67 57 L 67 66 L 53 66 L 53 57 L 67 57 Z  M 67 56 L 67 55 L 58.73 55 L 58.73 55 C 58.38 55 58.04 54.81 57.87 54.5 C 57.69 54.19 57.36 54 57 54 L 54 54 C 53.75 54 53.52 54.09 53.34 54.25 C 53.15 54.42 53.04 54.64 53.01 54.88 L 53 55.03 L 53 56 L 67 56 Z " fill-rule="evenodd" fill="rgb(255,255,255)"/></g></symbol><symbol id="image" viewBox="72 24 24 24"><g id="image"><rect x="72" y="24" width="24" height="24" transform="matrix(1,0,0,1,0,0)" fill="none"/><path d=" M 75.006 42.151 C 75.083 43.184 75.947 44 77 44 L 91 44 C 92.104 44 93 43.104 93 42 L 93 39 L 93 30 C 93 28.896 92.104 28 91 28 L 77 28 L 77 28 C 75.896 28 75 28.896 75 30 L 75 42 C 75 42.047 75.002 42.094 75.005 42.14 L 75 42.145 L 75.006 42.151 Z  M 91 37 L 91 30 L 77 30 L 77 30 L 77 40.145 L 81 36.145 L 84.427 39.572 L 89 35 L 91 37 Z  M 91 38.416 L 91 42 L 86.855 42 L 85.137 40.282 L 89 36.41 L 91 38.416 Z  M 85.438 42 L 77 42 L 77 41.563 L 81 37.555 L 85.438 42 Z " fill-rule="evenodd" fill="rgb(255,255,255)"/><path d=" M 82 34 C 82 32.896 82.896 32 84 32 C 85.104 32 86 32.896 86 34 C 86 35.104 85.104 36 84 36 C 82.896 36 82 35.104 82 34 Z  M 83 34 C 83 33.73 83.11 33.48 83.29 33.29 C 83.48 33.11 83.73 33 84 33 C 84.27 33 84.52 33.11 84.71 33.29 C 84.89 33.48 85 33.73 85 34 C 85 34.27 84.89 34.52 84.71 34.71 C 84.52 34.89 84.27 35 84 35 C 83.73 35 83.48 34.89 83.29 34.71 C 83.11 34.52 83 34.27 83 34 Z " fill-rule="evenodd" fill="rgb(255,255,255)"/></g></symbol><symbol id="inputs" viewBox="24 0 24 24"><g id="inputs"><path d=" M 24 0 L 48 0 L 48 24 L 24 24 L 24 0 Z " fill="none"/><path d=" M 28 5 L 44 5 C 45.104 5 46 5.896 46 7 L 46 15 C 46 16.104 45.104 17 44 17 L 28 17 C 26.896 17 26 16.104 26 15 L 26 7 C 26 5.896 26.896 5 28 5 Z  M 28 7 L 44 7 L 44 15 L 28 15 L 28 7 Z " fill-rule="evenodd" fill="rgb(255,255,255)"/><path d=" M 30 8 L 30.5 8 L 31.5 8 C 31.63 8 31.76 8.05 31.85 8.15 C 31.95 8.24 32 8.37 32 8.5 C 32 8.63 31.95 8.76 31.85 8.85 C 31.76 8.95 31.63 9 31.5 9 L 31 9 L 31 13 L 31.5 13 C 31.63 13 31.76 13.05 31.85 13.15 C 31.95 13.24 32 13.37 32 13.5 C 32 13.63 31.95 13.76 31.85 13.85 C 31.76 13.95 31.63 14 31.5 14 L 31 14 L 30.5 14 L 29.5 14 C 29.37 14 29.24 13.95 29.15 13.85 C 29.05 13.76 29 13.63 29 13.5 C 29 13.37 29.05 13.24 29.15 13.15 C 29.24 13.05 29.37 13 29.5 13 L 30 13 L 30 9 L 29.5 9 C 29.37 9 29.24 8.95 29.15 8.85 C 29.05 8.76 29 8.63 29 8.5 C 29 8.37 29.05 8.24 29.15 8.15 C 29.24 8.05 29.37 8 29.5 8 L 30 8 Z " fill="rgb(255,255,255)"/></g></symbol><symbol id="loadImage" viewBox="0 48 24 24"><g id="loadImage"><rect x="0" y="48" width="24" height="24" transform="matrix(1,0,0,1,0,0)" fill="none"/><path d=" M 5.708 67 L 5 67 C 3.896 67 3 66.104 3 65 L 3 53 C 3 51.896 3.896 51 5 51 L 12 51 L 12 53 L 5 53 L 5 65 L 6.243 65 C 6.274 64.959 6.306 64.918 6.339 64.877 L 12 57.8 L 17.661 64.877 C 17.694 64.918 17.726 64.959 17.757 65 L 19 65 L 19 53 L 12 53 L 12 51 L 19 51 C 20.104 51 21 51.896 21 53 L 21 65 C 21 66.104 20.104 67 19 67 L 18.292 67 C 18.054 67.615 17.318 68 16.16 68 L 15 68 L 15 69 C 15 70.104 14.104 71 13 71 L 11 71 C 9.896 71 9 70.104 9 69 L 9 68 L 7.84 68 C 6.682 68 5.946 67.615 5.708 67 Z  M 13 66 L 13 69 L 11 69 L 11 66 L 8 66 L 12 61 L 16 66 L 13 66 Z " fill-rule="evenodd" fill="rgb(255,255,255)"/></g></symbol><symbol id="newFilter" viewBox="72 48 24 24"><g id="newFilter"><rect x="72" y="48" width="24" height="24" transform="matrix(1,0,0,1,0,0)" fill="none"/><path d=" M 91 55 L 91 66.111 C 91 67.154 90.104 68 89 68 L 80 68 C 78.896 68 78 67.154 78 66.111 L 78 52.889 C 78 51.846 78.896 51 80 51 L 87 51 L 91 55 Z  M 80 53 L 86.17 53 L 89 55.83 L 89 66 L 80 66 L 80 53 Z  M 80 66 L 89 66 L 80 66 Z " fill-rule="evenodd" fill="rgb(255,255,255)"/><path d=" M 89 56 L 89 57 L 85 57 L 85 53 L 86 53 L 86 56 L 89 56 Z " fill-rule="evenodd" fill="rgb(255,255,255)"/></g></symbol><symbol id="newImage" viewBox="24 48 24 24"><g id="newImage"><rect x="24" y="48" width="24" height="24" transform="matrix(1,0,0,1,0,0)" fill="none"/><path d=" M 43 57.907 L 43 66 L 29 66 L 29 54 L 39.66 54 C 39.25 54.3 39.01 54.77 39 55.27 C 39 55.52 39.06 55.77 39.18 55.99 C 39.44 56.45 39.94 56.74 40.48 56.72 C 40.67 56.72 40.86 56.68 41.04 56.61 C 41.08 56.9 41.19 57.17 41.36 57.41 C 41.62 57.78 42.05 58 42.5 58 C 42.672 58 42.842 57.968 43 57.907 Z  M 44.788 53.157 C 44.788 53.157 44.788 53.157 44.788 53.157 C 44.757 53.189 44.722 53.216 44.683 53.239 L 43.442 54 L 43.442 54 L 43.442 54 L 44.683 54.761 C 44.883 54.883 45 55.091 45 55.287 C 45 55.287 45 55.287 45 55.287 C 45 55.361 44.983 55.434 44.947 55.5 C 44.817 55.739 44.488 55.796 44.212 55.627 L 43.615 55.261 L 42.971 54.866 L 42.971 56.388 C 42.971 56.726 42.76 57 42.5 57 C 42.24 57 42.029 56.726 42.029 56.388 L 42.029 54.866 L 40.788 55.627 C 40.512 55.796 40.183 55.739 40.053 55.5 C 39.923 55.261 40.041 54.93 40.317 54.761 L 41.558 54 L 41.558 54 L 40.317 53.239 C 40.041 53.07 39.923 52.739 40.053 52.5 C 40.183 52.261 40.512 52.204 40.788 52.373 L 41.385 52.739 L 41.385 52.739 L 42.029 53.134 L 42.029 53.134 L 42.029 52 L 42.029 51.612 C 42.029 51.274 42.24 51 42.5 51 C 42.76 51 42.971 51.274 42.971 51.612 L 42.971 52 L 42.971 52 L 42.971 53.134 L 42.971 53.134 L 43.615 52.739 L 44.186 52.39 C 44.186 52.39 44.186 52.39 44.186 52.39 L 44.212 52.373 L 44.212 52.373 C 44.488 52.204 44.817 52.261 44.947 52.5 C 45.059 52.706 44.987 52.98 44.788 53.157 Z  M 45 56.655 L 45 66 C 45 67.104 44.104 68 43 68 L 29 68 C 27.896 68 27 67.104 27 66 L 27 54 C 27 52.896 27.896 52 29 52 L 39.186 52 C 39.447 51.546 39.944 51.26 40.48 51.28 C 40.67 51.28 40.86 51.32 41.04 51.39 C 41.08 51.1 41.19 50.83 41.36 50.59 C 41.62 50.22 42.05 50 42.5 50 C 42.95 50 43.38 50.22 43.64 50.59 C 43.81 50.83 43.92 51.1 43.96 51.39 C 44.14 51.32 44.34 51.28 44.53 51.28 C 45.06 51.26 45.56 51.55 45.82 52.01 C 45.94 52.23 46 52.48 46 52.73 C 45.99 53.23 45.75 53.7 45.34 54 C 45.75 54.3 45.99 54.77 46 55.27 C 46 55.52 45.94 55.77 45.82 55.99 C 45.64 56.309 45.344 56.546 45 56.655 L 45 56.655 Z " fill-rule="evenodd" fill="rgb(255,255,255)"/></g></symbol><symbol id="noise" viewBox="72 0 24 24"><g id="noise"><rect x="72" y="0" width="24" height="24" transform="matrix(1,0,0,1,0,0)" fill="none"/><path d=" M 75 8.053 L 75 13.236 C 77.751 13.783 80.195 10.698 80 8 C 79.781 4.976 80.017 5.874 80 3 L 77 3 C 75.896 3 75 3.896 75 5 L 75 5.446 C 78.4 3.735 76.95 6.362 75 8.053 L 75 8.053 Z " fill="rgb(255,255,255)"/><path d=" M 88.449 21 L 88.449 21 C 88.639 20.171 89.459 19.362 90.656 18.324 C 91.096 11.844 83.04 16.847 82.096 21 L 77 21 C 75.896 21 75 20.104 75 19 L 75 16.856 C 76.038 16.738 77.398 16.45 79.166 15.945 C 83.394 14.313 83.513 11.397 83.145 8.564 C 82.875 6.484 82.342 4.447 82.989 3 L 91 3 C 92.104 3 93 3.896 93 5 L 93 19 C 93 20.104 92.104 21 91 21 L 88.449 21 Z  M 87.012 4.809 C 84.076 5.011 95.048 17.957 92 9 C 88.952 0.043 89.948 4.606 87.012 4.809 Z  M 84.481 11.946 C 83.478 13.772 88.114 14.341 87 11 Q 85.886 7.659 84.481 11.946 Z " fill-rule="evenodd" fill="rgb(255,255,255)"/><path d=" M 77 3 L 91 3 C 92.104 3 93 3.896 93 5 L 93 19 C 93 20.104 92.104 21 91 21 L 77 21 C 75.896 21 75 20.104 75 19 L 75 5 C 75 3.896 75.896 3 77 3 Z  M 77 4 L 91 4 C 91.27 4 91.52 4.11 91.71 4.29 C 91.89 4.48 92 4.73 92 5 L 92 19 C 92 19.27 91.89 19.52 91.71 19.71 C 91.52 19.89 91.27 20 91 20 L 77 20 C 76.73 20 76.48 19.89 76.29 19.71 C 76.11 19.52 76 19.27 76 19 L 76 5 C 76 4.73 76.11 4.48 76.29 4.29 C 76.48 4.11 76.73 4 77 4 Z " fill-rule="evenodd" fill="rgb(255,255,255)"/></g></symbol><symbol id="processing" viewBox="0 24 24 24"><g id="processing"><path d=" M 0 24 L 24 24 L 24 48 L 0 48 L 0 24 Z " fill="none"/><path d=" M 9 29.67 L 9 29 C 9 28.2 9.32 27.44 9.88 26.88 C 10.44 26.32 11.2 26 12 26 C 12.8 26 13.56 26.32 14.12 26.88 C 14.68 27.44 15 28.2 15 29 L 15 29.67 C 15.34 29.84 15.67 30.03 15.98 30.24 L 16.56 29.9 C 17.02 29.64 17.53 29.5 18.06 29.5 C 19.13 29.5 20.12 30.07 20.66 31 C 20.92 31.45 21.06 31.97 21.06 32.5 C 21.06 33.57 20.49 34.56 19.56 35.1 C 19.56 35.1 19.56 35.1 19.56 35.1 L 18.98 35.44 C 18.99 35.62 19 35.81 19 36 C 19 36.19 18.99 36.38 18.98 36.56 L 19.56 36.9 C 19.56 36.9 19.56 36.9 19.56 36.9 C 20.49 37.44 21.06 38.43 21.06 39.5 C 21.06 40.03 20.92 40.55 20.66 41 C 20.12 41.93 19.13 42.5 18.06 42.5 C 17.53 42.5 17.02 42.36 16.56 42.1 L 15.98 41.76 C 15.67 41.97 15.34 42.16 15 42.33 L 15 43 C 15 43.8 14.68 44.56 14.12 45.12 C 13.56 45.68 12.8 46 12 46 C 11.2 46 10.44 45.68 9.88 45.12 C 9.32 44.56 9 43.8 9 43 L 9 42.33 C 8.66 42.16 8.33 41.97 8.02 41.76 L 7.44 42.1 C 6.98 42.36 6.47 42.5 5.94 42.5 C 4.87 42.5 3.88 41.93 3.34 41 C 3.08 40.55 2.94 40.03 2.94 39.5 C 2.94 38.43 3.51 37.44 4.44 36.9 C 4.44 36.9 4.44 36.9 4.44 36.9 L 5.02 36.56 C 5.01 36.38 5 36.19 5 36 C 5 35.81 5.01 35.62 5.02 35.44 L 4.44 35.1 C 4.44 35.1 4.44 35.1 4.44 35.1 C 3.51 34.56 2.94 33.57 2.94 32.5 C 2.94 31.97 3.08 31.45 3.34 31 C 3.88 30.07 4.87 29.5 5.94 29.5 C 6.47 29.5 6.98 29.64 7.44 29.9 L 8.02 30.24 C 8.33 30.03 8.66 29.84 9 29.67 Z  M 11 30.34 L 11 29 C 11 28.73 11.11 28.48 11.29 28.29 C 11.48 28.11 11.73 28 12 28 C 12.27 28 12.52 28.11 12.71 28.29 C 12.89 28.48 13 28.73 13 29 L 13 30.34 C 13 30.76 13.27 31.14 13.67 31.28 C 14.24 31.49 14.78 31.8 15.25 32.2 C 15.57 32.47 16.03 32.52 16.4 32.31 L 17.56 31.63 C 17.56 31.63 17.56 31.63 17.56 31.63 C 17.71 31.55 17.89 31.5 18.06 31.5 C 18.42 31.5 18.75 31.69 18.93 32 C 19.02 32.15 19.06 32.32 19.06 32.5 C 19.06 32.86 18.87 33.19 18.56 33.37 L 17.4 34.04 C 17.03 34.25 16.84 34.67 16.92 35.08 C 16.97 35.39 17 35.69 17 36 C 17 36.31 16.97 36.61 16.92 36.92 C 16.84 37.33 17.03 37.75 17.4 37.96 L 18.56 38.63 C 18.87 38.81 19.06 39.14 19.06 39.5 C 19.06 39.68 19.02 39.85 18.93 40 C 18.75 40.31 18.42 40.5 18.06 40.5 C 17.89 40.5 17.71 40.45 17.56 40.37 C 17.56 40.37 17.56 40.37 17.56 40.37 L 16.4 39.69 C 16.03 39.48 15.57 39.53 15.25 39.8 C 14.78 40.2 14.24 40.51 13.67 40.72 C 13.27 40.86 13 41.24 13 41.66 L 13 43 C 13 43.27 12.89 43.52 12.71 43.71 C 12.52 43.89 12.27 44 12 44 C 11.73 44 11.48 43.89 11.29 43.71 C 11.11 43.52 11 43.27 11 43 L 11 41.66 C 11 41.24 10.73 40.86 10.33 40.72 C 9.76 40.51 9.22 40.2 8.75 39.8 C 8.43 39.53 7.97 39.48 7.6 39.69 L 6.44 40.37 C 6.44 40.37 6.44 40.37 6.44 40.37 C 6.29 40.45 6.11 40.5 5.94 40.5 C 5.58 40.5 5.25 40.31 5.07 40 C 4.98 39.85 4.94 39.68 4.94 39.5 C 4.94 39.14 5.13 38.81 5.44 38.63 L 6.6 37.96 C 6.97 37.75 7.16 37.33 7.08 36.92 C 7.03 36.61 7 36.31 7 36 C 7 35.69 7.03 35.39 7.08 35.08 C 7.16 34.67 6.97 34.25 6.6 34.04 L 5.44 33.37 C 5.13 33.19 4.94 32.86 4.94 32.5 C 4.94 32.32 4.98 32.15 5.07 32 C 5.25 31.69 5.58 31.5 5.94 31.5 C 6.11 31.5 6.29 31.55 6.44 31.63 C 6.44 31.63 6.44 31.63 6.44 31.63 L 7.6 32.31 C 7.97 32.52 8.43 32.47 8.75 32.2 C 9.22 31.8 9.76 31.49 10.33 31.28 C 10.73 31.14 11 30.76 11 30.34 Z " fill-rule="evenodd" fill="rgb(255,255,255)"/><path d=" M 9 36 C 9 34.344 10.344 33 12 33 C 13.656 33 15 34.344 15 36 C 15 37.656 13.656 39 12 39 C 10.344 39 9 37.656 9 36 Z  M 10 36 C 10 35.47 10.21 34.96 10.59 34.59 C 10.96 34.21 11.47 34 12 34 C 12.53 34 13.04 34.21 13.41 34.59 C 13.79 34.96 14 35.47 14 36 C 14 36.53 13.79 37.04 13.41 37.41 C 13.04 37.79 12.53 38 12 38 C 11.47 38 10.96 37.79 10.59 37.41 C 10.21 37.04 10 36.53 10 36 Z " fill-rule="evenodd" fill="rgb(255,255,255)"/></g></symbol><symbol id="save" viewBox="48 24 24 24"><g id="save"><rect x="48" y="24" width="24" height="24" transform="matrix(1,0,0,1,0,0)" fill="none"/><path d=" M 69 32 L 69 43 C 69 44.104 68.104 45 67 45 L 54 45 C 52.896 45 52 44.104 52 43 L 52 29 C 52 27.896 52.896 27 54 27 L 64 27 L 69 32 L 69 32 Z  M 63 33 L 63 29 L 63.17 29 L 67 32.83 L 67 43 L 54 43 L 54 29 L 55 29 L 55 34 L 56 34 L 62 34 L 63 34 L 63 33 Z  M 62 33 L 62 29 L 56 29 L 56 29 L 56 33 L 62 33 Z  M 59 37.5 C 59 36.672 59.672 36 60.5 36 C 61.328 36 62 36.672 62 37.5 C 62 38.328 61.328 39 60.5 39 C 59.672 39 59 38.328 59 37.5 Z  M 58 37.5 C 58 36.84 58.26 36.2 58.73 35.73 C 59.2 35.26 59.84 35 60.5 35 C 61.16 35 61.8 35.26 62.27 35.73 C 62.74 36.2 63 36.84 63 37.5 C 63 38.16 62.74 38.8 62.27 39.27 C 61.8 39.74 61.16 40 60.5 40 C 59.84 40 59.2 39.74 58.73 39.27 C 58.26 38.8 58 38.16 58 37.5 Z " fill-rule="evenodd" fill="rgb(255,255,255)"/></g></symbol></svg>